# OBJ generated by ONSHAPE BY PTC INC, 1.215 Units = meters
mtllib base-coupler-v9.mtl
g Part 1
v 0.00254 -0.033528 0.0122238 
v 0.00254 -0.036068 0.0122238 
v 0.00365565 -0.036068 0.0121633 
v 0.00365565 -0.033528 0.0121633 
v 0.00475823 -0.036068 0.0119825 
v 0.00475823 -0.033528 0.0119825 
v 0.00583479 -0.036068 0.0116836 
v 0.00583479 -0.033528 0.0116836 
v 0.00687273 -0.036068 0.01127 
v 0.00687273 -0.033528 0.01127 
v 0.00785987 -0.036068 0.0107467 
v 0.00785987 -0.033528 0.0107467 
v 0.00878464 -0.036068 0.0101197 
v 0.00878464 -0.033528 0.0101197 
v 0.0096362 -0.036068 0.00939637 
v 0.0096362 -0.033528 0.00939637 
v 0.0104046 -0.036068 0.00858522 
v 0.0104046 -0.033528 0.00858522 
v 0.0110807 -0.036068 0.00769575 
v 0.0110807 -0.033528 0.00769575 
v 0.0116567 -0.036068 0.00673839 
v 0.0116567 -0.033528 0.00673839 
v 0.0121259 -0.036068 0.00572436 
v 0.0121259 -0.033528 0.00572436 
v 0.0124826 -0.036068 0.00466556 
v 0.0124826 -0.033528 0.00466556 
v 0.0127228 -0.036068 0.00357439 
v 0.0127228 -0.033528 0.00357439 
v 0.0128436 -0.036068 0.00246365 
v 0.0128436 -0.033528 0.00246365 
v 0.0128436 -0.036068 0.00134635 
v 0.0128436 -0.033528 0.00134635 
v 0.0127228 -0.036068 0.000235612 
v 0.0127228 -0.033528 0.000235612 
v 0.0124826 -0.036068 -0.000855558 
v 0.0124521 -0.036068 -0.00094615 
v 0.0121259 -0.036068 -0.00191436 
v 0.0122595 -0.033528 -0.00151765 
v 0.0121259 -0.033528 -0.00191436 
v 0.0124826 -0.033528 -0.000855558 
v 0.0116567 -0.036068 -0.00292839 
v 0.0116567 -0.033528 -0.00292839 
v 0.0110807 -0.036068 -0.00388575 
v 0.0110807 -0.033528 -0.00388575 
v 0.0104046 -0.036068 -0.00477522 
v 0.0104046 -0.033528 -0.00477522 
v 0.0096362 -0.036068 -0.00558637 
v 0.0096362 -0.033528 -0.00558637 
v 0.00878464 -0.036068 -0.00630969 
v 0.00878464 -0.033528 -0.00630969 
v 0.00785987 -0.036068 -0.00693669 
v 0.00785987 -0.033528 -0.00693669 
v 0.00687273 -0.036068 -0.00746004 
v 0.00687273 -0.033528 -0.00746004 
v 0.00583479 -0.036068 -0.0078736 
v 0.00583479 -0.033528 -0.0078736 
v 0.00475823 -0.036068 -0.0081725 
v 0.00475823 -0.033528 -0.0081725 
v 0.00365565 -0.036068 -0.00835326 
v 0.00365565 -0.033528 -0.00835326 
v 0.00254 -0.036068 -0.00841375 
v 0.00254 -0.033528 -0.00841375 
v 0.00142435 -0.036068 -0.00835326 
v 0.00142435 -0.033528 -0.00835326 
v 0.000321774 -0.036068 -0.0081725 
v 0.000321774 -0.033528 -0.0081725 
v -0.00031115 -0.036068 -0.00799677 
v -0.000754793 -0.033528 -0.0078736 
v -0.00179273 -0.036068 -0.00746004 
v -0.00179273 -0.033528 -0.00746004 
v -0.00088265 -0.033528 -0.00782265 
v -0.000754793 -0.036068 -0.0078736 
v -0.00277987 -0.036068 -0.00693669 
v -0.00277987 -0.033528 -0.00693669 
v -0.00370464 -0.036068 -0.00630969 
v -0.00370464 -0.033528 -0.00630969 
v -0.0045562 -0.036068 -0.00558637 
v -0.0045562 -0.033528 -0.00558637 
v -0.00532456 -0.036068 -0.00477522 
v -0.00532456 -0.033528 -0.00477522 
v -0.00600072 -0.036068 -0.00388575 
v -0.00600072 -0.033528 -0.00388575 
v -0.00657674 -0.036068 -0.00292839 
v -0.00657674 -0.033528 -0.00292839 
v -0.00704588 -0.036068 -0.00191436 
v -0.00737211 -0.036068 -0.00094615 
v -0.00740263 -0.033528 -0.000855558 
v -0.00717955 -0.033528 -0.00151765 
v -0.00704588 -0.033528 -0.00191436 
v -0.00740263 -0.036068 -0.000855558 
v -0.00764282 -0.036068 0.000235612 
v -0.00764282 -0.033528 0.000235612 
v -0.00776362 -0.036068 0.00134635 
v -0.00776362 -0.033528 0.00134635 
v -0.00776362 -0.036068 0.00246365 
v -0.00776362 -0.033528 0.00246365 
v -0.00764282 -0.036068 0.00357439 
v -0.00764282 -0.033528 0.00357439 
v -0.00740263 -0.036068 0.00466556 
v -0.00740263 -0.033528 0.00466556 
v -0.00704588 -0.036068 0.00572436 
v -0.00704588 -0.033528 0.00572436 
v -0.00657674 -0.036068 0.00673839 
v -0.00657674 -0.033528 0.00673839 
v -0.00600072 -0.036068 0.00769575 
v -0.00600072 -0.033528 0.00769575 
v -0.00532456 -0.036068 0.00858522 
v -0.00532456 -0.033528 0.00858522 
v -0.0045562 -0.036068 0.00939637 
v -0.0045562 -0.033528 0.00939637 
v -0.00370464 -0.036068 0.0101197 
v -0.00370464 -0.033528 0.0101197 
v -0.00277987 -0.036068 0.0107467 
v -0.00277987 -0.033528 0.0107467 
v -0.00179273 -0.036068 0.01127 
v -0.000754793 -0.036068 0.0116836 
v -0.00088265 -0.033528 0.0116327 
v -0.000754793 -0.033528 0.0116836 
v 0.000321774 -0.033528 0.0119825 
v -0.00031115 -0.036068 0.0118068 
v 0.000321774 -0.036068 0.0119825 
v 0.00142435 -0.036068 0.0121633 
v 0.00142435 -0.033528 0.0121633 
v -0.00179273 -0.033528 0.01127 
v -0.00118653 -0.036068 -0.00094615 
v -0.00031115 -0.036068 -0.00182952 
v -0.0010414 -0.036068 -0.00113707 
v -0.0006915 -0.036068 -0.00150645 
v -0.00503904 -0.036068 0.00285578 
v -0.00514372 -0.036068 0.00288484 
v -0.00493813 -0.036068 0.00281557 
v -0.00525092 -0.036068 0.00290242 
v -0.00546788 -0.036068 0.00290242 
v -0.00567976 -0.036068 0.00285578 
v -0.00557508 -0.036068 0.00288484 
v -0.00447297 -0.036068 0.00237495 
v -0.00442736 -0.036068 0.00227636 
v -0.00198772 -0.036068 0.00316212 
v -0.00475223 -0.036068 0.00270372 
v -0.00466943 -0.036068 0.00263339 
v -0.00031115 -0.036068 0.00563952 
v -0.00484214 -0.036068 0.00276468 
v -0.0053594 -0.036068 0.0029083 
v -0.00578067 -0.036068 0.00281557 
v -0.00452898 -0.036068 0.00246804 
v -0.00182526 -0.036068 0.00364428 
v -0.00161162 -0.036068 0.00410605 
v -0.00459472 -0.036068 0.00255452 
v -0.00134931 -0.036068 0.00454202 
v -0.00447297 -0.036068 0.00143505 
v -0.00182526 -0.036068 0.000165721 
v -0.00198772 -0.036068 0.000647884 
v -0.0010414 -0.036068 0.00494707 
v -0.0006915 -0.036068 0.00531645 
v -0.00596657 -0.036068 0.00270372 
v -0.00587666 -0.036068 0.00276468 
v -0.00604937 -0.036068 0.00263339 
v -0.00629144 -0.036068 0.00227636 
v -0.00514372 -0.036068 0.000925157 
v -0.00525092 -0.036068 0.000907581 
v -0.00493813 -0.036068 0.00099443 
v -0.00503904 -0.036068 0.00095422 
v -0.00442736 -0.036068 0.00153364 
v -0.00439267 -0.036068 0.00217341 
v -0.0020971 -0.036068 0.00266521 
v -0.00612408 -0.036068 0.00255452 
v -0.00632613 -0.036068 0.00217341 
v -0.00604937 -0.036068 0.00117661 
v -0.00612408 -0.036068 0.00125548 
v -0.00484214 -0.036068 0.00104532 
v -0.00452898 -0.036068 0.00134196 
v -0.00466943 -0.036068 0.00117661 
v -0.00134931 -0.036068 -0.000732018 
v -0.00161162 -0.036068 -0.000296051 
v -0.00215211 -0.036068 0.0021594 
v -0.00435757 -0.036068 0.00195932 
v -0.00435757 -0.036068 0.00185068 
v -0.00618982 -0.036068 0.00246804 
v -0.00624583 -0.036068 0.00237495 
v -0.00636123 -0.036068 0.00185068 
v -0.00632613 -0.036068 0.00163659 
v -0.00634948 -0.036068 0.00174268 
v -0.00596657 -0.036068 0.00110628 
v -0.00475223 -0.036068 0.00110628 
v -0.00459472 -0.036068 0.00125548 
v -0.00436932 -0.036068 0.00206732 
v -0.00636123 -0.036068 0.00195932 
v -0.00634948 -0.036068 0.00206732 
v -0.00624583 -0.036068 0.00143505 
v -0.00629144 -0.036068 0.00153364 
v -0.00587666 -0.036068 0.00104532 
v -0.0020971 -0.036068 0.00114479 
v -0.00215211 -0.036068 0.0016506 
v -0.00618982 -0.036068 0.00134196 
v -0.00578067 -0.036068 0.00099443 
v -0.0053594 -0.036068 0.0009017 
v -0.00546788 -0.036068 0.000907581 
v -0.00436932 -0.036068 0.00174268 
v -0.00439267 -0.036068 0.00163659 
v -0.00567976 -0.036068 0.00095422 
v -0.00557508 -0.036068 0.000925157 
v 0.00974943 -0.036068 0.00263339 
v 0.00330468 -0.036068 0.00915488 
v 0.00322997 -0.036068 0.00907601 
v 0.00967472 -0.036068 0.00255452 
v 0.00960898 -0.036068 0.00246804 
v 0.010119 -0.036068 0.00285578 
v 0.0102237 -0.036068 0.00288484 
v 0.00983223 -0.036068 0.00270372 
v 0.00337042 -0.036068 0.00924136 
v 0.00347204 -0.036068 0.00943304 
v 0.00342643 -0.036068 0.00933445 
v 0.0105479 -0.036068 0.00290242 
v 0.0106551 -0.036068 0.00288484 
v 0.0103309 -0.036068 0.00290242 
v 0.0107598 -0.036068 0.00285578 
v 0.0108607 -0.036068 0.00281557 
v 0.00955297 -0.036068 0.00237495 
v 0.0104394 -0.036068 0.0029083 
v 0.0100181 -0.036068 0.00281557 
v 0.00314717 -0.036068 0.00900568 
v 0.00305726 -0.036068 0.00894472 
v 0.00354183 -0.036068 0.00975008 
v 0.00353008 -0.036068 0.00964208 
v 0.00350673 -0.036068 0.0100728 
v 0.00992214 -0.036068 0.00276468 
v 0.00354183 -0.036068 0.00985872 
v 0.00353008 -0.036068 0.00996672 
v 0.00337042 -0.036068 0.0103674 
v 0.0111294 -0.036068 0.00263339 
v 0.0112041 -0.036068 0.00255452 
v 0.00350673 -0.036068 0.00953599 
v 0.00347204 -0.036068 0.0101758 
v 0.00322997 -0.036068 0.0105328 
v 0.00330468 -0.036068 0.0104539 
v 0.00154992 -0.036068 0.00964208 
v 0.00296127 -0.036068 0.00889383 
v 0.0057715 -0.036068 0.00531645 
v 0.0061214 -0.036068 0.00494707 
v 0.0109567 -0.036068 0.00276468 
v 0.00342643 -0.036068 0.0102744 
v 0.00153817 -0.036068 0.00975008 
v 0.0071771 -0.036068 0.00114479 
v 0.00974943 -0.036068 0.00117661 
v 0.00967472 -0.036068 0.00125548 
v 0.00690526 -0.036068 0.00364428 
v 0.00706772 -0.036068 0.00316212 
v 0.00642931 -0.036068 0.00454202 
v 0.00669162 -0.036068 0.00410605 
v 0.00538371 -0.036068 0.00564584 
v 0.00286036 -0.036068 0.00885362 
v 0.00275568 -0.036068 0.00882456 
v 0.00304805 -0.036068 0.00657645 
v 0.0110466 -0.036068 0.00270372 
v 0.00305726 -0.036068 0.0106641 
v 0.00314717 -0.036068 0.0106031 
v 0.00154992 -0.036068 0.00996672 
v 0.00157327 -0.036068 0.0100728 
v 0.00153817 -0.036068 0.00985872 
v 0.000566941 -0.036068 0.0061697 
v 0.00202274 -0.036068 0.00894472 
v 0.00193283 -0.036068 0.00900568 
v 0.0010396 -0.036068 0.00635802 
v 0.00185003 -0.036068 0.00907601 
v -0.000303714 -0.036068 0.00564584 
v 0.00983223 -0.036068 0.00110628 
v 0.00690526 -0.036068 0.000165721 
v 0.00669162 -0.036068 -0.000296051 
v 0.00496259 -0.036068 0.00593137 
v 0.00355015 -0.036068 0.00649414 
v 0.0113258 -0.036068 0.00237495 
v 0.0113714 -0.036068 0.00227636 
v 0.00296127 -0.036068 0.010715 
v 0.00177532 -0.036068 0.0104539 
v 0.00185003 -0.036068 0.0105328 
v 0.00170958 -0.036068 0.0103674 
v 0.00160796 -0.036068 0.00943304 
v 0.00157327 -0.036068 0.00953599 
v 0.00170958 -0.036068 0.00924136 
v 0.00165357 -0.036068 0.00933445 
v 0.00211873 -0.036068 0.00889383 
v 0.000117412 -0.036068 0.00593137 
v 0.0109567 -0.036068 0.00104532 
v 0.00642931 -0.036068 -0.000732018 
v 0.00706772 -0.036068 0.000647884 
v 0.00723211 -0.036068 0.0021594 
v 0.00723211 -0.036068 0.0016506 
v 0.00451306 -0.036068 0.0061697 
v 0.00193283 -0.036068 0.0106031 
v 0.00160796 -0.036068 0.0101758 
v 0.00165357 -0.036068 0.0102744 
v 0.00177532 -0.036068 0.00915488 
v 0.0107598 -0.036068 0.00095422 
v 0.0106551 -0.036068 0.000925157 
v 0.0111294 -0.036068 0.00117661 
v 0.0110466 -0.036068 0.00110628 
v 0.0071771 -0.036068 0.00266521 
v 0.0040404 -0.036068 0.00635802 
v 0.00626653 -0.036068 -0.00094615 
v 0.0103309 -0.036068 0.000907581 
v 0.0112698 -0.036068 0.00246804 
v 0.00947267 -0.036068 0.00163659 
v 0.00944932 -0.036068 0.00174268 
v 0.00264848 -0.036068 0.0108018 
v 0.00275568 -0.036068 0.0107842 
v 0.00232432 -0.036068 0.0107842 
v 0.00202274 -0.036068 0.0106641 
v 0.00221964 -0.036068 0.00885362 
v 0.00152985 -0.036068 0.00649414 
v 0.00203195 -0.036068 0.00657645 
v 0.0108607 -0.036068 0.00099443 
v 0.0112698 -0.036068 0.00134196 
v 0.0112041 -0.036068 0.00125548 
v 0.00254 -0.036068 0.006604 
v 0.00264848 -0.036068 0.00880698 
v 0.0102237 -0.036068 0.000925157 
v 0.010119 -0.036068 0.00095422 
v 0.0104394 -0.036068 0.0009017 
v 0.00947267 -0.036068 0.00217341 
v 0.00950736 -0.036068 0.00227636 
v 0.00943757 -0.036068 0.00195932 
v 0.00944932 -0.036068 0.00206732 
v 0.00943757 -0.036068 0.00185068 
v 0.00960898 -0.036068 0.00134196 
v 0.00254 -0.036068 0.0108077 
v 0.00243152 -0.036068 0.0108018 
v 0.00232432 -0.036068 0.00882456 
v 0.0105479 -0.036068 0.000907581 
v 0.0100181 -0.036068 0.00099443 
v 0.00992214 -0.036068 0.00104532 
v 0.00955297 -0.036068 0.00143505 
v 0.00286036 -0.036068 0.0107552 
v 0.00254 -0.036068 0.0088011 
v 0.00243152 -0.036068 0.00880698 
v 0.0113714 -0.036068 0.00153364 
v 0.0114412 -0.036068 0.00185068 
v 0.0114295 -0.036068 0.00174268 
v 0.0114412 -0.036068 0.00195932 
v 0.00950736 -0.036068 0.00153364 
v 0.00211873 -0.036068 0.010715 
v 0.00221964 -0.036068 0.0107552 
v 0.0113258 -0.036068 0.00143505 
v 0.0114061 -0.036068 0.00163659 
v 0.0114061 -0.036068 0.00217341 
v 0.0114295 -0.036068 0.00206732 
v 0.00314717 -0.036068 -0.00519568 
v 0.0061214 -0.036068 -0.00113707 
v 0.00353008 -0.036068 -0.00615672 
v 0.00350673 -0.036068 -0.00626281 
v 0.00354183 -0.036068 -0.00604872 
v 0.00286036 -0.036068 -0.00504362 
v 0.00451306 -0.036068 -0.0023597 
v 0.0040404 -0.036068 -0.00254802 
v 0.00538371 -0.036068 -0.00183584 
v 0.00496259 -0.036068 -0.00212137 
v 0.00296127 -0.036068 -0.00508383 
v 0.00305726 -0.036068 -0.00513472 
v 0.00347204 -0.036068 -0.00636576 
v 0.00342643 -0.036068 -0.00646435 
v 0.00354183 -0.036068 -0.00594008 
v 0.00353008 -0.036068 -0.00583208 
v 0.00350673 -0.036068 -0.00572599 
v 0.00347204 -0.036068 -0.00562304 
v 0.0057715 -0.036068 -0.00150645 
v 0.00153817 -0.036068 -0.00594008 
v 0.00154992 -0.036068 -0.00583208 
v 0.00342643 -0.036068 -0.00552445 
v 0.00154992 -0.036068 -0.00615672 
v 0.00153817 -0.036068 -0.00604872 
v 0.00170958 -0.036068 -0.00655744 
v 0.00330468 -0.036068 -0.00664392 
v 0.00322997 -0.036068 -0.00672279 
v 0.00337042 -0.036068 -0.00655744 
v 0.00330468 -0.036068 -0.00534488 
v 0.00337042 -0.036068 -0.00543136 
v 0.00322997 -0.036068 -0.00526601 
v 0.0010396 -0.036068 -0.00254802 
v 0.00193283 -0.036068 -0.00519568 
v 0.00202274 -0.036068 -0.00513472 
v 0.00170958 -0.036068 -0.00543136 
v 0.00177532 -0.036068 -0.00534488 
v 0.00157327 -0.036068 -0.00572599 
v 0.00160796 -0.036068 -0.00562304 
v 0.00160796 -0.036068 -0.00636576 
v 0.00157327 -0.036068 -0.00626281 
v 0.00177532 -0.036068 -0.00664392 
v 0.00193283 -0.036068 -0.00679312 
v 0.00185003 -0.036068 -0.00672279 
v 0.00355015 -0.036068 -0.00268414 
v 0.00304805 -0.036068 -0.00276645 
v 0.00264848 -0.036068 -0.00499698 
v 0.00275568 -0.036068 -0.00501456 
v 0.00254 -0.036068 -0.002794 
v 0.00254 -0.036068 -0.0049911 
v 0.00203195 -0.036068 -0.00276645 
v 0.00243152 -0.036068 -0.00499698 
v 0.00221964 -0.036068 -0.00504362 
v 0.00232432 -0.036068 -0.00501456 
v 0.00211873 -0.036068 -0.00508383 
v 0.00152985 -0.036068 -0.00268414 
v 0.00185003 -0.036068 -0.00526601 
v 0.00165357 -0.036068 -0.00552445 
v 0.00165357 -0.036068 -0.00646435 
v 0.00314717 -0.036068 -0.00679312 
v 0.000566941 -0.036068 -0.0023597 
v 0.00202274 -0.036068 -0.00685408 
v 0.00305726 -0.036068 -0.00685408 
v 0.00211873 -0.036068 -0.00690497 
v 0.000117412 -0.036068 -0.00212137 
v 0.00232432 -0.036068 -0.00697424 
v 0.00221964 -0.036068 -0.00694518 
v 0.00243152 -0.036068 -0.00699182 
v 0.00275568 -0.036068 -0.00697424 
v -0.000303714 -0.036068 -0.00183584 
v 0.00254 -0.036068 -0.0069977 
v 0.00264848 -0.036068 -0.00699182 
v 0.00296127 -0.036068 -0.00690497 
v 0.00286036 -0.036068 -0.00694518 
v 0.00254 -0.033528 -0.0069977 
v 0.00243152 -0.033528 -0.00699182 
v 0.00232432 -0.033528 -0.00697424 
v 0.00221964 -0.033528 -0.00694518 
v 0.00211873 -0.033528 -0.00690497 
v 0.00202274 -0.033528 -0.00685408 
v 0.00193283 -0.033528 -0.00679312 
v 0.00185003 -0.033528 -0.00672279 
v 0.00177532 -0.033528 -0.00664392 
v 0.00170958 -0.033528 -0.00655744 
v 0.00165357 -0.033528 -0.00646435 
v 0.00160796 -0.033528 -0.00636576 
v 0.00157327 -0.033528 -0.00626281 
v 0.00154992 -0.033528 -0.00615672 
v 0.00153817 -0.033528 -0.00604872 
v 0.00153817 -0.033528 -0.00594008 
v 0.00154992 -0.033528 -0.00583208 
v 0.00157327 -0.033528 -0.00572599 
v 0.00160796 -0.033528 -0.00562304 
v 0.00165357 -0.033528 -0.00552445 
v 0.00170958 -0.033528 -0.00543136 
v 0.00177532 -0.033528 -0.00534488 
v 0.00185003 -0.033528 -0.00526601 
v 0.00193283 -0.033528 -0.00519568 
v 0.00202274 -0.033528 -0.00513472 
v 0.00211873 -0.033528 -0.00508383 
v 0.00221964 -0.033528 -0.00504362 
v 0.00232432 -0.033528 -0.00501456 
v 0.00243152 -0.033528 -0.00499698 
v 0.00254 -0.033528 -0.0049911 
v 0.00264848 -0.033528 -0.00499698 
v 0.00275568 -0.033528 -0.00501456 
v 0.00286036 -0.033528 -0.00504362 
v 0.00296127 -0.033528 -0.00508383 
v 0.00305726 -0.033528 -0.00513472 
v 0.00314717 -0.033528 -0.00519568 
v 0.00322997 -0.033528 -0.00526601 
v 0.00330468 -0.033528 -0.00534488 
v 0.00337042 -0.033528 -0.00543136 
v 0.00342643 -0.033528 -0.00552445 
v 0.00347204 -0.033528 -0.00562304 
v 0.00350673 -0.033528 -0.00572599 
v 0.00353008 -0.033528 -0.00583208 
v 0.00354183 -0.033528 -0.00594008 
v 0.00354183 -0.033528 -0.00604872 
v 0.00353008 -0.033528 -0.00615672 
v 0.00350673 -0.033528 -0.00626281 
v 0.00347204 -0.033528 -0.00636576 
v 0.00342643 -0.033528 -0.00646435 
v 0.00337042 -0.033528 -0.00655744 
v 0.00330468 -0.033528 -0.00664392 
v 0.00322997 -0.033528 -0.00672279 
v 0.00314717 -0.033528 -0.00679312 
v 0.00305726 -0.033528 -0.00685408 
v 0.00296127 -0.033528 -0.00690497 
v 0.00286036 -0.033528 -0.00694518 
v 0.00275568 -0.033528 -0.00697424 
v 0.00264848 -0.033528 -0.00699182 
v -0.0053594 -0.033528 0.0009017 
v -0.00546788 -0.033528 0.000907581 
v -0.00557508 -0.033528 0.000925157 
v -0.00567976 -0.033528 0.00095422 
v -0.00578067 -0.033528 0.00099443 
v -0.00587666 -0.033528 0.00104532 
v -0.00596657 -0.033528 0.00110628 
v -0.00604937 -0.033528 0.00117661 
v -0.00612408 -0.033528 0.00125548 
v -0.00618982 -0.033528 0.00134196 
v -0.00624583 -0.033528 0.00143505 
v -0.00629144 -0.033528 0.00153364 
v -0.00632613 -0.033528 0.00163659 
v -0.00634948 -0.033528 0.00174268 
v -0.00636123 -0.033528 0.00185068 
v -0.00636123 -0.033528 0.00195932 
v -0.00634948 -0.033528 0.00206732 
v -0.00632613 -0.033528 0.00217341 
v -0.00629144 -0.033528 0.00227636 
v -0.00624583 -0.033528 0.00237495 
v -0.00618982 -0.033528 0.00246804 
v -0.00612408 -0.033528 0.00255452 
v -0.00604937 -0.033528 0.00263339 
v -0.00596657 -0.033528 0.00270372 
v -0.00587666 -0.033528 0.00276468 
v -0.00578067 -0.033528 0.00281557 
v -0.00567976 -0.033528 0.00285578 
v -0.00557508 -0.033528 0.00288484 
v -0.00546788 -0.033528 0.00290242 
v -0.0053594 -0.033528 0.0029083 
v -0.00525092 -0.033528 0.00290242 
v -0.00514372 -0.033528 0.00288484 
v -0.00503904 -0.033528 0.00285578 
v -0.00493813 -0.033528 0.00281557 
v -0.00484214 -0.033528 0.00276468 
v -0.00475223 -0.033528 0.00270372 
v -0.00466943 -0.033528 0.00263339 
v -0.00459472 -0.033528 0.00255452 
v -0.00452898 -0.033528 0.00246804 
v -0.00447297 -0.033528 0.00237495 
v -0.00442736 -0.033528 0.00227636 
v -0.00439267 -0.033528 0.00217341 
v -0.00436932 -0.033528 0.00206732 
v -0.00435757 -0.033528 0.00195932 
v -0.00435757 -0.033528 0.00185068 
v -0.00436932 -0.033528 0.00174268 
v -0.00439267 -0.033528 0.00163659 
v -0.00442736 -0.033528 0.00153364 
v -0.00447297 -0.033528 0.00143505 
v -0.00452898 -0.033528 0.00134196 
v -0.00459472 -0.033528 0.00125548 
v -0.00466943 -0.033528 0.00117661 
v -0.00475223 -0.033528 0.00110628 
v -0.00484214 -0.033528 0.00104532 
v -0.00493813 -0.033528 0.00099443 
v -0.00503904 -0.033528 0.00095422 
v -0.00514372 -0.033528 0.000925157 
v -0.00525092 -0.033528 0.000907581 
v 0.00254 -0.033528 0.0088011 
v 0.00243152 -0.033528 0.00880698 
v 0.00232432 -0.033528 0.00882456 
v 0.00221964 -0.033528 0.00885362 
v 0.00211873 -0.033528 0.00889383 
v 0.00202274 -0.033528 0.00894472 
v 0.00193283 -0.033528 0.00900568 
v 0.00185003 -0.033528 0.00907601 
v 0.00177532 -0.033528 0.00915488 
v 0.00170958 -0.033528 0.00924136 
v 0.00165357 -0.033528 0.00933445 
v 0.00160796 -0.033528 0.00943304 
v 0.00157327 -0.033528 0.00953599 
v 0.00154992 -0.033528 0.00964208 
v 0.00153817 -0.033528 0.00975008 
v 0.00153817 -0.033528 0.00985872 
v 0.00154992 -0.033528 0.00996672 
v 0.00157327 -0.033528 0.0100728 
v 0.00160796 -0.033528 0.0101758 
v 0.00165357 -0.033528 0.0102744 
v 0.00170958 -0.033528 0.0103674 
v 0.00177532 -0.033528 0.0104539 
v 0.00185003 -0.033528 0.0105328 
v 0.00193283 -0.033528 0.0106031 
v 0.00202274 -0.033528 0.0106641 
v 0.00211873 -0.033528 0.010715 
v 0.00221964 -0.033528 0.0107552 
v 0.00232432 -0.033528 0.0107842 
v 0.00243152 -0.033528 0.0108018 
v 0.00254 -0.033528 0.0108077 
v 0.00264848 -0.033528 0.0108018 
v 0.00275568 -0.033528 0.0107842 
v 0.00286036 -0.033528 0.0107552 
v 0.00296127 -0.033528 0.010715 
v 0.00305726 -0.033528 0.0106641 
v 0.00314717 -0.033528 0.0106031 
v 0.00322997 -0.033528 0.0105328 
v 0.00330468 -0.033528 0.0104539 
v 0.00337042 -0.033528 0.0103674 
v 0.00342643 -0.033528 0.0102744 
v 0.00347204 -0.033528 0.0101758 
v 0.00350673 -0.033528 0.0100728 
v 0.00353008 -0.033528 0.00996672 
v 0.00354183 -0.033528 0.00985872 
v 0.00354183 -0.033528 0.00975008 
v 0.00353008 -0.033528 0.00964208 
v 0.00350673 -0.033528 0.00953599 
v 0.00347204 -0.033528 0.00943304 
v 0.00342643 -0.033528 0.00933445 
v 0.00337042 -0.033528 0.00924136 
v 0.00330468 -0.033528 0.00915488 
v 0.00322997 -0.033528 0.00907601 
v 0.00314717 -0.033528 0.00900568 
v 0.00305726 -0.033528 0.00894472 
v 0.00296127 -0.033528 0.00889383 
v 0.00286036 -0.033528 0.00885362 
v 0.00275568 -0.033528 0.00882456 
v 0.00264848 -0.033528 0.00880698 
v 0.0104394 -0.033528 0.0009017 
v 0.0103309 -0.033528 0.000907581 
v 0.0102237 -0.033528 0.000925157 
v 0.010119 -0.033528 0.00095422 
v 0.0100181 -0.033528 0.00099443 
v 0.00992214 -0.033528 0.00104532 
v 0.00983223 -0.033528 0.00110628 
v 0.00974943 -0.033528 0.00117661 
v 0.00967472 -0.033528 0.00125548 
v 0.00960898 -0.033528 0.00134196 
v 0.00955297 -0.033528 0.00143505 
v 0.00950736 -0.033528 0.00153364 
v 0.00947267 -0.033528 0.00163659 
v 0.00944932 -0.033528 0.00174268 
v 0.00943757 -0.033528 0.00185068 
v 0.00943757 -0.033528 0.00195932 
v 0.00944932 -0.033528 0.00206732 
v 0.00947267 -0.033528 0.00217341 
v 0.00950736 -0.033528 0.00227636 
v 0.00955297 -0.033528 0.00237495 
v 0.00960898 -0.033528 0.00246804 
v 0.00967472 -0.033528 0.00255452 
v 0.00974943 -0.033528 0.00263339 
v 0.00983223 -0.033528 0.00270372 
v 0.00992214 -0.033528 0.00276468 
v 0.0100181 -0.033528 0.00281557 
v 0.010119 -0.033528 0.00285578 
v 0.0102237 -0.033528 0.00288484 
v 0.0103309 -0.033528 0.00290242 
v 0.0104394 -0.033528 0.0029083 
v 0.0105479 -0.033528 0.00290242 
v 0.0106551 -0.033528 0.00288484 
v 0.0107598 -0.033528 0.00285578 
v 0.0108607 -0.033528 0.00281557 
v 0.0109567 -0.033528 0.00276468 
v 0.0110466 -0.033528 0.00270372 
v 0.0111294 -0.033528 0.00263339 
v 0.0112041 -0.033528 0.00255452 
v 0.0112698 -0.033528 0.00246804 
v 0.0113258 -0.033528 0.00237495 
v 0.0113714 -0.033528 0.00227636 
v 0.0114061 -0.033528 0.00217341 
v 0.0114295 -0.033528 0.00206732 
v 0.0114412 -0.033528 0.00195932 
v 0.0114412 -0.033528 0.00185068 
v 0.0114295 -0.033528 0.00174268 
v 0.0114061 -0.033528 0.00163659 
v 0.0113714 -0.033528 0.00153364 
v 0.0113258 -0.033528 0.00143505 
v 0.0112698 -0.033528 0.00134196 
v 0.0112041 -0.033528 0.00125548 
v 0.0111294 -0.033528 0.00117661 
v 0.0110466 -0.033528 0.00110628 
v 0.0109567 -0.033528 0.00104532 
v 0.0108607 -0.033528 0.00099443 
v 0.0107598 -0.033528 0.00095422 
v 0.0106551 -0.033528 0.000925157 
v 0.0105479 -0.033528 0.000907581 
v 0.00203195 -0.033528 0.00657645 
v 0.00254 -0.033528 0.006604 
v 0.00152985 -0.033528 0.00649414 
v 0.0010396 -0.033528 0.00635802 
v 0.000566941 -0.033528 0.0061697 
v 0.000117412 -0.033528 0.00593137 
v -0.000303714 -0.033528 0.00564584 
v -0.0006915 -0.033528 0.00531645 
v -0.0010414 -0.033528 0.00494707 
v -0.00134931 -0.033528 0.00454202 
v -0.00161162 -0.033528 0.00410605 
v -0.00182526 -0.033528 0.00364428 
v -0.00198772 -0.033528 0.00316212 
v -0.0020971 -0.033528 0.00266521 
v -0.00215211 -0.033528 0.0021594 
v -0.00215211 -0.033528 0.0016506 
v -0.0020971 -0.033528 0.00114479 
v -0.00198772 -0.033528 0.000647884 
v -0.00182526 -0.033528 0.000165721 
v -0.00161162 -0.033528 -0.000296051 
v -0.00134931 -0.033528 -0.000732018 
v -0.0010414 -0.033528 -0.00113707 
v -0.0006915 -0.033528 -0.00150645 
v -0.000303714 -0.033528 -0.00183584 
v 0.000117412 -0.033528 -0.00212137 
v 0.000566941 -0.033528 -0.0023597 
v 0.0010396 -0.033528 -0.00254802 
v 0.00152985 -0.033528 -0.00268414 
v 0.00203195 -0.033528 -0.00276645 
v 0.00254 -0.033528 -0.002794 
v 0.00304805 -0.033528 -0.00276645 
v 0.00355015 -0.033528 -0.00268414 
v 0.0040404 -0.033528 -0.00254802 
v 0.00451306 -0.033528 -0.0023597 
v 0.00496259 -0.033528 -0.00212137 
v 0.00538371 -0.033528 -0.00183584 
v 0.0057715 -0.033528 -0.00150645 
v 0.0061214 -0.033528 -0.00113707 
v 0.00642931 -0.033528 -0.000732018 
v 0.00669162 -0.033528 -0.000296051 
v 0.00690526 -0.033528 0.000165721 
v 0.00706772 -0.033528 0.000647884 
v 0.0071771 -0.033528 0.00114479 
v 0.00723211 -0.033528 0.0016506 
v 0.00723211 -0.033528 0.0021594 
v 0.0071771 -0.033528 0.00266521 
v 0.00706772 -0.033528 0.00316212 
v 0.00690526 -0.033528 0.00364428 
v 0.00669162 -0.033528 0.00410605 
v 0.00642931 -0.033528 0.00454202 
v 0.0061214 -0.033528 0.00494707 
v 0.0057715 -0.033528 0.00531645 
v 0.00538371 -0.033528 0.00564584 
v 0.00496259 -0.033528 0.00593137 
v 0.00451306 -0.033528 0.0061697 
v 0.0040404 -0.033528 0.00635802 
v 0.00355015 -0.033528 0.00649414 
v 0.00304805 -0.033528 0.00657645 
v 0.008382 -0.033528 -0.000583682 
v 0.00502868 -0.033528 0.007747 
v 5.13184e-05 -0.033528 0.007747 
v 0.008382 -0.033528 0.00439368 
v 0.00557536 -0.033528 0.00748255 
v 0.00658068 -0.033528 0.00680351 
v 0.00609427 -0.033528 0.0071671 
v 0.00703013 -0.033528 0.00639513 
v 0.00743851 -0.033528 0.00594568 
v 0.0078021 -0.033528 0.00545927 
v 0.00811755 -0.033528 0.00494036 
v 0.00788211 -0.033528 -0.00151765 
v 0.00811755 -0.033528 -0.00113036 
v -0.000495356 -0.033528 0.00748255 
v -0.00235851 -0.033528 0.00594568 
v -0.003302 -0.033528 -0.000583682 
v -0.00195013 -0.033528 0.00639513 
v -0.00101427 -0.033528 0.0071671 
v -0.00150068 -0.033528 0.00680351 
v -0.00088265 -0.033528 0.00724711 
v -0.0027221 -0.033528 0.00545927 
v -0.00303755 -0.033528 0.00494036 
v -0.003302 -0.033528 0.00439368 
v -0.00303755 -0.033528 -0.00113036 
v -0.00235851 -0.033528 -0.00213568 
v -0.00195013 -0.033528 -0.00258513 
v -0.0027221 -0.033528 -0.00164927 
v -0.00150068 -0.033528 -0.00299351 
v -0.00101427 -0.033528 -0.0033571 
v -0.00088265 -0.033528 -0.00343711 
v -0.00280211 -0.033528 -0.00151765 
v 5.13184e-05 -0.033528 -0.003937 
v 0.00502868 -0.033528 -0.003937 
v 0.00658068 -0.033528 -0.00299351 
v 0.00703013 -0.033528 -0.00258513 
v 0.00743851 -0.033528 -0.00213568 
v 0.00557536 -0.033528 -0.00367255 
v 0.00609427 -0.033528 -0.0033571 
v 0.0078021 -0.033528 -0.00164927 
v -0.000495356 -0.033528 -0.00367255 
v 0.00502868 -0.01016 0.007747 
v 0.00557536 -0.01016 0.00748255 
v 0.00609427 -0.01016 0.0071671 
v 0.00658068 -0.01016 0.00680351 
v 0.00703013 -0.01016 0.00639513 
v 0.00743851 -0.01016 0.00594568 
v 0.0078021 -0.01016 0.00545927 
v 0.00811755 -0.01016 0.00494036 
v 0.008382 -0.01016 0.00439368 
v 0.008382 -0.01016 -0.000583682 
v 0.00811755 -0.01016 -0.00113036 
v 0.0078021 -0.01016 -0.00164927 
v 0.00743851 -0.01016 -0.00213568 
v 0.00703013 -0.01016 -0.00258513 
v 0.00658068 -0.01016 -0.00299351 
v 0.00609427 -0.01016 -0.0033571 
v 0.00557536 -0.01016 -0.00367255 
v 0.00502868 -0.01016 -0.003937 
v 5.13184e-05 -0.01016 -0.003937 
v -0.000495356 -0.01016 -0.00367255 
v -0.00101427 -0.01016 -0.0033571 
v -0.00150068 -0.01016 -0.00299351 
v -0.00195013 -0.01016 -0.00258513 
v -0.00235851 -0.01016 -0.00213568 
v -0.00303755 -0.01016 -0.00113036 
v -0.0027221 -0.01016 -0.00164927 
v -0.003302 -0.01016 -0.000583682 
v -0.003302 -0.01016 0.00439368 
v -0.00303755 -0.01016 0.00494036 
v -0.0027221 -0.01016 0.00545927 
v -0.00235851 -0.01016 0.00594568 
v -0.00195013 -0.01016 0.00639513 
v -0.00150068 -0.01016 0.00680351 
v -0.000495356 -0.01016 0.00748255 
v -0.00101427 -0.01016 0.0071671 
v 5.13184e-05 -0.01016 0.007747 
v 0.00508 -0.01016 -4.76682e-20 
v 0.00508 -0.01016 0.00381 
v 0.00127 -0.01016 -0.0012954 
v 0.00381 -0.01016 -0.0012954 
v -1.90673e-19 -0.01016 0.00381 
v -1.90673e-19 -0.01016 0 
v 0.00381 -0.01016 0.00381 
v 0.00381 -0.01016 0.0051054 
v 0.00381 -0.01016 -4.76682e-20 
v 0.00127 -0.01016 0.00381 
v 0.00127 -0.01016 0.0051054 
v 0.00127 -0.01016 -4.76682e-20 
v 0.00508 -0.033528 0.00381 
v 0.00508 -0.033528 -4.76682e-20 
v 0.00127 -0.033528 0.0051054 
v 0.00381 -0.033528 0.0051054 
v -1.90673e-19 -0.033528 0 
v -1.90673e-19 -0.033528 0.00381 
v 0.00381 -0.033528 -4.76682e-20 
v 0.00381 -0.033528 -0.0012954 
v 0.00127 -0.033528 -0.0012954 
v 0.00381 -0.033528 0.00381 
v 0.00127 -0.033528 -4.76682e-20 
v 0.00127 -0.033528 0.00381 
vn 0 0 1 
vn 0.108119 0 0.994138 
vn 0.21497 0 0.976621 
vn 0.319302 0 0.947653 
vn 0.419889 0 0.907575 
vn 0.515554 0 0.856857 
vn 0.605174 0 0.796093 
vn 0.687699 0 0.725995 
vn 0.762162 0 0.647386 
vn 0.827689 0 0.561187 
vn 0.883512 0 0.468408 
vn 0.928977 0 0.370138 
vn 0.96355 0 0.267528 
vn 0.986827 0 0.161782 
vn 0.998533 0 0.0541389 
vn 0.998533 0 -0.0541389 
vn 0.986827 0 -0.161782 
vn 0.96355 0 -0.267528 
vn 0.961033 0 -0.276435 
vn 0.928977 0 -0.370138 
vn 0.943227 0 -0.332149 
vn 0.96355 0 -0.267528 
vn 0.883512 0 -0.468408 
vn 0.827689 0 -0.561187 
vn 0.762162 0 -0.647386 
vn 0.687699 0 -0.725995 
vn 0.605174 0 -0.796093 
vn 0.515554 0 -0.856857 
vn 0.419889 0 -0.907575 
vn 0.319302 0 -0.947653 
vn 0.21497 0 -0.976621 
vn 0.108119 0 -0.994138 
vn 1.22465e-16 0 -1 
vn -0.108119 0 -0.994138 
vn -0.21497 0 -0.976621 
vn -0.276701 0 -0.960956 
vn -0.319302 0 -0.947653 
vn -0.419889 0 -0.907575 
vn -0.331903 0 -0.943314 
vn -0.319302 0 -0.947653 
vn -0.515554 0 -0.856857 
vn -0.605174 0 -0.796093 
vn -0.687699 0 -0.725995 
vn -0.762162 0 -0.647386 
vn -0.827689 0 -0.561187 
vn -0.883512 0 -0.468408 
vn -0.928977 0 -0.370138 
vn -0.961033 0 -0.276435 
vn -0.96355 0 -0.267528 
vn -0.943227 0 -0.332149 
vn -0.928977 0 -0.370138 
vn -0.96355 0 -0.267528 
vn -0.986827 0 -0.161782 
vn -0.998533 0 -0.0541389 
vn -0.998533 0 0.0541389 
vn -0.986827 0 0.161782 
vn -0.96355 0 0.267528 
vn -0.928977 0 0.370138 
vn -0.883512 0 0.468408 
vn -0.827689 0 0.561187 
vn -0.762162 0 0.647386 
vn -0.687699 0 0.725995 
vn -0.605174 0 0.796093 
vn -0.515554 0 0.856857 
vn -0.419889 0 0.907575 
vn -0.319302 0 0.947653 
vn -0.331903 0 0.943314 
vn -0.21497 0 0.976621 
vn -0.276701 0 0.960956 
vn -0.108119 0 0.994138 
vn -0.419889 0 0.907575 
vn 0 -1 0 
vn 0.108119 0 0.994138 
vn 2.44929e-16 0 1 
vn 0.21497 0 0.976621 
vn 0.108119 0 0.994138 
vn 0.319302 0 0.947653 
vn 0.21497 0 0.976621 
vn 0.419889 0 0.907575 
vn 0.319302 0 0.947653 
vn 0.515554 0 0.856857 
vn 0.419889 0 0.907575 
vn 0.605174 0 0.796093 
vn 0.515554 0 0.856857 
vn 0.687699 0 0.725995 
vn 0.605174 0 0.796093 
vn 0.762162 0 0.647386 
vn 0.687699 0 0.725995 
vn 0.827689 0 0.561187 
vn 0.762162 0 0.647386 
vn 0.883512 0 0.468408 
vn 0.827689 0 0.561187 
vn 0.928977 0 0.370138 
vn 0.883512 0 0.468408 
vn 0.96355 0 0.267528 
vn 0.928977 0 0.370138 
vn 0.986827 0 0.161782 
vn 0.96355 0 0.267528 
vn 0.998533 0 0.0541389 
vn 0.986827 0 0.161782 
vn 0.998533 0 -0.0541389 
vn 0.998533 0 0.0541389 
vn 0.986827 0 -0.161782 
vn 0.998533 0 -0.0541389 
vn 0.96355 0 -0.267528 
vn 0.986827 0 -0.161782 
vn 0.928977 0 -0.370138 
vn 0.96355 0 -0.267528 
vn 0.883512 0 -0.468408 
vn 0.928977 0 -0.370138 
vn 0.827689 0 -0.561187 
vn 0.883512 0 -0.468408 
vn 0.762162 0 -0.647386 
vn 0.827689 0 -0.561187 
vn 0.687699 0 -0.725995 
vn 0.762162 0 -0.647386 
vn 0.605174 0 -0.796093 
vn 0.687699 0 -0.725995 
vn 0.515554 0 -0.856857 
vn 0.605174 0 -0.796093 
vn 0.419889 0 -0.907575 
vn 0.515554 0 -0.856857 
vn 0.319302 0 -0.947653 
vn 0.419889 0 -0.907575 
vn 0.21497 0 -0.976621 
vn 0.319302 0 -0.947653 
vn 0.108119 0 -0.994138 
vn 0.21497 0 -0.976621 
vn -1.22465e-16 0 -1 
vn 0.108119 0 -0.994138 
vn -0.108119 0 -0.994138 
vn -1.22465e-16 0 -1 
vn -0.21497 0 -0.976621 
vn -0.108119 0 -0.994138 
vn -0.319302 0 -0.947653 
vn -0.21497 0 -0.976621 
vn -0.419889 0 -0.907575 
vn -0.319302 0 -0.947653 
vn -0.515554 0 -0.856857 
vn -0.419889 0 -0.907575 
vn -0.605174 0 -0.796093 
vn -0.515554 0 -0.856857 
vn -0.687699 0 -0.725995 
vn -0.605174 0 -0.796093 
vn -0.762162 0 -0.647386 
vn -0.687699 0 -0.725995 
vn -0.827689 0 -0.561187 
vn -0.762162 0 -0.647386 
vn -0.883512 0 -0.468408 
vn -0.827689 0 -0.561187 
vn -0.928977 0 -0.370138 
vn -0.883512 0 -0.468408 
vn -0.96355 0 -0.267528 
vn -0.928977 0 -0.370138 
vn -0.986827 0 -0.161782 
vn -0.96355 0 -0.267528 
vn -0.998533 0 -0.0541389 
vn -0.986827 0 -0.161782 
vn -0.998533 0 0.0541389 
vn -0.998533 0 -0.0541389 
vn -0.986827 0 0.161782 
vn -0.998533 0 0.0541389 
vn -0.96355 0 0.267528 
vn -0.986827 0 0.161782 
vn -0.928977 0 0.370138 
vn -0.96355 0 0.267528 
vn -0.883512 0 0.468408 
vn -0.928977 0 0.370138 
vn -0.827689 0 0.561187 
vn -0.883512 0 0.468408 
vn -0.762162 0 0.647386 
vn -0.827689 0 0.561187 
vn -0.687699 0 0.725995 
vn -0.762162 0 0.647386 
vn -0.605174 0 0.796093 
vn -0.687699 0 0.725995 
vn -0.515554 0 0.856857 
vn -0.605174 0 0.796093 
vn -0.419889 0 0.907575 
vn -0.515554 0 0.856857 
vn -0.319302 0 0.947653 
vn -0.419889 0 0.907575 
vn -0.21497 0 0.976621 
vn -0.319302 0 0.947653 
vn -0.108119 0 0.994138 
vn -0.21497 0 0.976621 
vn 0.108119 0 0.994138 
vn 2.44929e-16 0 1 
vn 0.21497 0 0.976621 
vn 0.108119 0 0.994138 
vn 0.319302 0 0.947653 
vn 0.21497 0 0.976621 
vn 0.419889 0 0.907575 
vn 0.319302 0 0.947653 
vn 0.515554 0 0.856857 
vn 0.419889 0 0.907575 
vn 0.605174 0 0.796093 
vn 0.515554 0 0.856857 
vn 0.687699 0 0.725995 
vn 0.605174 0 0.796093 
vn 0.762162 0 0.647386 
vn 0.687699 0 0.725995 
vn 0.827689 0 0.561187 
vn 0.762162 0 0.647386 
vn 0.883512 0 0.468408 
vn 0.827689 0 0.561187 
vn 0.928977 0 0.370138 
vn 0.883512 0 0.468408 
vn 0.96355 0 0.267528 
vn 0.928977 0 0.370138 
vn 0.986827 0 0.161782 
vn 0.96355 0 0.267528 
vn 0.998533 0 0.0541389 
vn 0.986827 0 0.161782 
vn 0.998533 0 -0.0541389 
vn 0.998533 0 0.0541389 
vn 0.986827 0 -0.161782 
vn 0.998533 0 -0.0541389 
vn 0.96355 0 -0.267528 
vn 0.986827 0 -0.161782 
vn 0.928977 0 -0.370138 
vn 0.96355 0 -0.267528 
vn 0.883512 0 -0.468408 
vn 0.928977 0 -0.370138 
vn 0.827689 0 -0.561187 
vn 0.883512 0 -0.468408 
vn 0.762162 0 -0.647386 
vn 0.827689 0 -0.561187 
vn 0.687699 0 -0.725995 
vn 0.762162 0 -0.647386 
vn 0.605174 0 -0.796093 
vn 0.687699 0 -0.725995 
vn 0.515554 0 -0.856857 
vn 0.605174 0 -0.796093 
vn 0.419889 0 -0.907575 
vn 0.515554 0 -0.856857 
vn 0.319302 0 -0.947653 
vn 0.419889 0 -0.907575 
vn 0.21497 0 -0.976621 
vn 0.319302 0 -0.947653 
vn 0.108119 0 -0.994138 
vn 0.21497 0 -0.976621 
vn -1.22465e-16 0 -1 
vn 0.108119 0 -0.994138 
vn -0.108119 0 -0.994138 
vn -1.22465e-16 0 -1 
vn -0.21497 0 -0.976621 
vn -0.108119 0 -0.994138 
vn -0.319302 0 -0.947653 
vn -0.21497 0 -0.976621 
vn -0.419889 0 -0.907575 
vn -0.319302 0 -0.947653 
vn -0.515554 0 -0.856857 
vn -0.419889 0 -0.907575 
vn -0.605174 0 -0.796093 
vn -0.515554 0 -0.856857 
vn -0.687699 0 -0.725995 
vn -0.605174 0 -0.796093 
vn -0.762162 0 -0.647386 
vn -0.687699 0 -0.725995 
vn -0.827689 0 -0.561187 
vn -0.762162 0 -0.647386 
vn -0.883512 0 -0.468408 
vn -0.827689 0 -0.561187 
vn -0.928977 0 -0.370138 
vn -0.883512 0 -0.468408 
vn -0.96355 0 -0.267528 
vn -0.928977 0 -0.370138 
vn -0.986827 0 -0.161782 
vn -0.96355 0 -0.267528 
vn -0.998533 0 -0.0541389 
vn -0.986827 0 -0.161782 
vn -0.998533 0 0.0541389 
vn -0.998533 0 -0.0541389 
vn -0.986827 0 0.161782 
vn -0.998533 0 0.0541389 
vn -0.96355 0 0.267528 
vn -0.986827 0 0.161782 
vn -0.928977 0 0.370138 
vn -0.96355 0 0.267528 
vn -0.883512 0 0.468408 
vn -0.928977 0 0.370138 
vn -0.827689 0 0.561187 
vn -0.883512 0 0.468408 
vn -0.762162 0 0.647386 
vn -0.827689 0 0.561187 
vn -0.687699 0 0.725995 
vn -0.762162 0 0.647386 
vn -0.605174 0 0.796093 
vn -0.687699 0 0.725995 
vn -0.515554 0 0.856857 
vn -0.605174 0 0.796093 
vn -0.419889 0 0.907575 
vn -0.515554 0 0.856857 
vn -0.319302 0 0.947653 
vn -0.419889 0 0.907575 
vn -0.21497 0 0.976621 
vn -0.319302 0 0.947653 
vn -0.108119 0 0.994138 
vn -0.21497 0 0.976621 
vn 0.108119 0 0.994138 
vn 2.44929e-16 0 1 
vn 0.21497 0 0.976621 
vn 0.108119 0 0.994138 
vn 0.319302 0 0.947653 
vn 0.21497 0 0.976621 
vn 0.419889 0 0.907575 
vn 0.319302 0 0.947653 
vn 0.515554 0 0.856857 
vn 0.419889 0 0.907575 
vn 0.605174 0 0.796093 
vn 0.515554 0 0.856857 
vn 0.687699 0 0.725995 
vn 0.605174 0 0.796093 
vn 0.762162 0 0.647386 
vn 0.687699 0 0.725995 
vn 0.827689 0 0.561187 
vn 0.762162 0 0.647386 
vn 0.883512 0 0.468408 
vn 0.827689 0 0.561187 
vn 0.928977 0 0.370138 
vn 0.883512 0 0.468408 
vn 0.96355 0 0.267528 
vn 0.928977 0 0.370138 
vn 0.986827 0 0.161782 
vn 0.96355 0 0.267528 
vn 0.998533 0 0.0541389 
vn 0.986827 0 0.161782 
vn 0.998533 0 -0.0541389 
vn 0.998533 0 0.0541389 
vn 0.986827 0 -0.161782 
vn 0.998533 0 -0.0541389 
vn 0.96355 0 -0.267528 
vn 0.986827 0 -0.161782 
vn 0.928977 0 -0.370138 
vn 0.96355 0 -0.267528 
vn 0.883512 0 -0.468408 
vn 0.928977 0 -0.370138 
vn 0.827689 0 -0.561187 
vn 0.883512 0 -0.468408 
vn 0.762162 0 -0.647386 
vn 0.827689 0 -0.561187 
vn 0.687699 0 -0.725995 
vn 0.762162 0 -0.647386 
vn 0.605174 0 -0.796093 
vn 0.687699 0 -0.725995 
vn 0.515554 0 -0.856857 
vn 0.605174 0 -0.796093 
vn 0.419889 0 -0.907575 
vn 0.515554 0 -0.856857 
vn 0.319302 0 -0.947653 
vn 0.419889 0 -0.907575 
vn 0.21497 0 -0.976621 
vn 0.319302 0 -0.947653 
vn 0.108119 0 -0.994138 
vn 0.21497 0 -0.976621 
vn -1.22465e-16 0 -1 
vn 0.108119 0 -0.994138 
vn -0.108119 0 -0.994138 
vn -1.22465e-16 0 -1 
vn -0.21497 0 -0.976621 
vn -0.108119 0 -0.994138 
vn -0.319302 0 -0.947653 
vn -0.21497 0 -0.976621 
vn -0.419889 0 -0.907575 
vn -0.319302 0 -0.947653 
vn -0.515554 0 -0.856857 
vn -0.419889 0 -0.907575 
vn -0.605174 0 -0.796093 
vn -0.515554 0 -0.856857 
vn -0.687699 0 -0.725995 
vn -0.605174 0 -0.796093 
vn -0.762162 0 -0.647386 
vn -0.687699 0 -0.725995 
vn -0.827689 0 -0.561187 
vn -0.762162 0 -0.647386 
vn -0.883512 0 -0.468408 
vn -0.827689 0 -0.561187 
vn -0.928977 0 -0.370138 
vn -0.883512 0 -0.468408 
vn -0.96355 0 -0.267528 
vn -0.928977 0 -0.370138 
vn -0.986827 0 -0.161782 
vn -0.96355 0 -0.267528 
vn -0.998533 0 -0.0541389 
vn -0.986827 0 -0.161782 
vn -0.998533 0 0.0541389 
vn -0.998533 0 -0.0541389 
vn -0.986827 0 0.161782 
vn -0.998533 0 0.0541389 
vn -0.96355 0 0.267528 
vn -0.986827 0 0.161782 
vn -0.928977 0 0.370138 
vn -0.96355 0 0.267528 
vn -0.883512 0 0.468408 
vn -0.928977 0 0.370138 
vn -0.827689 0 0.561187 
vn -0.883512 0 0.468408 
vn -0.762162 0 0.647386 
vn -0.827689 0 0.561187 
vn -0.687699 0 0.725995 
vn -0.762162 0 0.647386 
vn -0.605174 0 0.796093 
vn -0.687699 0 0.725995 
vn -0.515554 0 0.856857 
vn -0.605174 0 0.796093 
vn -0.419889 0 0.907575 
vn -0.515554 0 0.856857 
vn -0.319302 0 0.947653 
vn -0.419889 0 0.907575 
vn -0.21497 0 0.976621 
vn -0.319302 0 0.947653 
vn -0.108119 0 0.994138 
vn -0.21497 0 0.976621 
vn 0.108119 0 0.994138 
vn 2.44929e-16 0 1 
vn 0.21497 0 0.976621 
vn 0.108119 0 0.994138 
vn 0.319302 0 0.947653 
vn 0.21497 0 0.976621 
vn 0.419889 0 0.907575 
vn 0.319302 0 0.947653 
vn 0.515554 0 0.856857 
vn 0.419889 0 0.907575 
vn 0.605174 0 0.796093 
vn 0.515554 0 0.856857 
vn 0.687699 0 0.725995 
vn 0.605174 0 0.796093 
vn 0.762162 0 0.647386 
vn 0.687699 0 0.725995 
vn 0.827689 0 0.561187 
vn 0.762162 0 0.647386 
vn 0.883512 0 0.468408 
vn 0.827689 0 0.561187 
vn 0.928977 0 0.370138 
vn 0.883512 0 0.468408 
vn 0.96355 0 0.267528 
vn 0.928977 0 0.370138 
vn 0.986827 0 0.161782 
vn 0.96355 0 0.267528 
vn 0.998533 0 0.0541389 
vn 0.986827 0 0.161782 
vn 0.998533 0 -0.0541389 
vn 0.998533 0 0.0541389 
vn 0.986827 0 -0.161782 
vn 0.998533 0 -0.0541389 
vn 0.96355 0 -0.267528 
vn 0.986827 0 -0.161782 
vn 0.928977 0 -0.370138 
vn 0.96355 0 -0.267528 
vn 0.883512 0 -0.468408 
vn 0.928977 0 -0.370138 
vn 0.827689 0 -0.561187 
vn 0.883512 0 -0.468408 
vn 0.762162 0 -0.647386 
vn 0.827689 0 -0.561187 
vn 0.687699 0 -0.725995 
vn 0.762162 0 -0.647386 
vn 0.605174 0 -0.796093 
vn 0.687699 0 -0.725995 
vn 0.515554 0 -0.856857 
vn 0.605174 0 -0.796093 
vn 0.419889 0 -0.907575 
vn 0.515554 0 -0.856857 
vn 0.319302 0 -0.947653 
vn 0.419889 0 -0.907575 
vn 0.21497 0 -0.976621 
vn 0.319302 0 -0.947653 
vn 0.108119 0 -0.994138 
vn 0.21497 0 -0.976621 
vn -1.22465e-16 0 -1 
vn 0.108119 0 -0.994138 
vn -0.108119 0 -0.994138 
vn -1.22465e-16 0 -1 
vn -0.21497 0 -0.976621 
vn -0.108119 0 -0.994138 
vn -0.319302 0 -0.947653 
vn -0.21497 0 -0.976621 
vn -0.419889 0 -0.907575 
vn -0.319302 0 -0.947653 
vn -0.515554 0 -0.856857 
vn -0.419889 0 -0.907575 
vn -0.605174 0 -0.796093 
vn -0.515554 0 -0.856857 
vn -0.687699 0 -0.725995 
vn -0.605174 0 -0.796093 
vn -0.762162 0 -0.647386 
vn -0.687699 0 -0.725995 
vn -0.827689 0 -0.561187 
vn -0.762162 0 -0.647386 
vn -0.883512 0 -0.468408 
vn -0.827689 0 -0.561187 
vn -0.928977 0 -0.370138 
vn -0.883512 0 -0.468408 
vn -0.96355 0 -0.267528 
vn -0.928977 0 -0.370138 
vn -0.986827 0 -0.161782 
vn -0.96355 0 -0.267528 
vn -0.998533 0 -0.0541389 
vn -0.986827 0 -0.161782 
vn -0.998533 0 0.0541389 
vn -0.998533 0 -0.0541389 
vn -0.986827 0 0.161782 
vn -0.998533 0 0.0541389 
vn -0.96355 0 0.267528 
vn -0.986827 0 0.161782 
vn -0.928977 0 0.370138 
vn -0.96355 0 0.267528 
vn -0.883512 0 0.468408 
vn -0.928977 0 0.370138 
vn -0.827689 0 0.561187 
vn -0.883512 0 0.468408 
vn -0.762162 0 0.647386 
vn -0.827689 0 0.561187 
vn -0.687699 0 0.725995 
vn -0.762162 0 0.647386 
vn -0.605174 0 0.796093 
vn -0.687699 0 0.725995 
vn -0.515554 0 0.856857 
vn -0.605174 0 0.796093 
vn -0.419889 0 0.907575 
vn -0.515554 0 0.856857 
vn -0.319302 0 0.947653 
vn -0.419889 0 0.907575 
vn -0.21497 0 0.976621 
vn -0.319302 0 0.947653 
vn -0.108119 0 0.994138 
vn -0.21497 0 0.976621 
vn 0.108119 0 -0.994138 
vn 2.44929e-16 0 -1 
vn 0.21497 0 -0.976621 
vn 0.108119 0 -0.994138 
vn 0.319302 0 -0.947653 
vn 0.21497 0 -0.976621 
vn 0.419889 0 -0.907575 
vn 0.319302 0 -0.947653 
vn 0.515554 0 -0.856857 
vn 0.419889 0 -0.907575 
vn 0.605174 0 -0.796093 
vn 0.515554 0 -0.856857 
vn 0.606824 0 -0.794836 
vn 0.687699 0 -0.725995 
vn 0.762162 0 -0.647386 
vn 0.827689 0 -0.561187 
vn 0.883512 0 -0.468408 
vn 0.928977 0 -0.370138 
vn 0.96355 0 -0.267528 
vn 0.986827 0 -0.161782 
vn 0.998533 0 -0.0541389 
vn 0.998533 0 0.0541389 
vn 0.986827 0 0.161782 
vn 0.96355 0 0.267528 
vn 0.928977 0 0.370138 
vn 0.883512 0 0.468408 
vn 0.827689 0 0.561187 
vn 0.794209 0 0.607645 
vn 0.762162 0 0.647386 
vn 0.687699 0 0.725995 
vn 0.606824 0 0.794836 
vn 0.605174 0 0.796093 
vn 0.515554 0 0.856857 
vn 0.419889 0 0.907575 
vn 0.319302 0 0.947653 
vn 0.21497 0 0.976621 
vn 0.108119 0 0.994138 
vn -1.22465e-16 0 1 
vn -0.108119 0 0.994138 
vn -0.21497 0 0.976621 
vn -0.319302 0 0.947653 
vn -0.419889 0 0.907575 
vn -0.515554 0 0.856857 
vn -0.605174 0 0.796093 
vn -0.687699 0 0.725995 
vn -0.762162 0 0.647386 
vn -0.827689 0 0.561187 
vn -0.794209 0 0.607645 
vn -0.762162 0 0.647386 
vn -0.883512 0 0.468408 
vn -0.827689 0 0.561187 
vn -0.928977 0 0.370138 
vn -0.883512 0 0.468408 
vn -0.96355 0 0.267528 
vn -0.928977 0 0.370138 
vn -0.986827 0 0.161782 
vn -0.96355 0 0.267528 
vn -0.998533 0 0.0541389 
vn -0.986827 0 0.161782 
vn -0.998533 0 -0.0541389 
vn -0.998533 0 0.0541389 
vn -0.986827 0 -0.161782 
vn -0.998533 0 -0.0541389 
vn -0.96355 0 -0.267528 
vn -0.986827 0 -0.161782 
vn -0.928977 0 -0.370138 
vn -0.96355 0 -0.267528 
vn -0.883512 0 -0.468408 
vn -0.928977 0 -0.370138 
vn -0.827689 0 -0.561187 
vn -0.883512 0 -0.468408 
vn -0.762162 0 -0.647386 
vn -0.827689 0 -0.561187 
vn -0.687699 0 -0.725995 
vn -0.762162 0 -0.647386 
vn -0.605174 0 -0.796093 
vn -0.687699 0 -0.725995 
vn -0.515554 0 -0.856857 
vn -0.605174 0 -0.796093 
vn -0.419889 0 -0.907575 
vn -0.515554 0 -0.856857 
vn -0.319302 0 -0.947653 
vn -0.419889 0 -0.907575 
vn -0.21497 0 -0.976621 
vn -0.319302 0 -0.947653 
vn -0.108119 0 -0.994138 
vn -0.21497 0 -0.976621 
vn 0 1 0 
vn 0.391918 0 0.92 
vn 0.478009 0 0.878355 
vn 0.559728 0 0.828677 
vn 0.636327 0 0.771419 
vn 0.707107 0 0.707107 
vn 0.771419 0 0.636327 
vn 0.828677 0 0.559728 
vn 0.878355 0 0.478009 
vn 0.92 0 0.391918 
vn 0.92 0 -0.391918 
vn 0.878355 0 -0.478009 
vn 0.842007 0 -0.539467 
vn 0.828677 0 -0.559728 
vn 0.771419 0 -0.636327 
vn 0.707107 0 -0.707107 
vn 0.636327 0 -0.771419 
vn 0.559728 0 -0.828677 
vn 0.478009 0 -0.878355 
vn 0.391918 0 -0.92 
vn -0.391918 0 -0.92 
vn -0.478009 0 -0.878355 
vn -0.539467 0 -0.842007 
vn -0.559728 0 -0.828677 
vn -0.636327 0 -0.771419 
vn -0.707107 0 -0.707107 
vn -0.771419 0 -0.636327 
vn -0.828677 0 -0.559728 
vn -0.878355 0 -0.478009 
vn -0.842007 0 -0.539467 
vn -0.92 0 -0.391918 
vn -0.92 0 0.391918 
vn -0.878355 0 0.478009 
vn -0.828677 0 0.559728 
vn -0.771419 0 0.636327 
vn -0.707107 0 0.707107 
vn -0.636327 0 0.771419 
vn -0.559728 0 0.828677 
vn -0.478009 0 0.878355 
vn -0.539467 0 0.842007 
vn -0.391918 0 0.92 
vn -1 0 -1.74261e-16 
vn 0 0 -1 
vn 1 0 0 
vn -1.74261e-16 0 1 
vn 0 1 0 
vn 0 -1 0 
vn 1 0 0 
vn 0 0 -1 
vn -1 0 -3.34785e-16 
vn 0 0 1 
vn 1 0 -1.67393e-16 
usemtl 0.615686_0.811765_0.929412_0.000000_0.000000
o mesh0
f 1//1 2//1 3//2 
f 4//2 3//2 5//3 
f 6//3 5//3 7//4 
f 8//4 7//4 9//5 
f 10//5 9//5 11//6 
f 12//6 11//6 13//7 
f 14//7 13//7 15//8 
f 16//8 15//8 17//9 
f 18//9 17//9 19//10 
f 20//10 19//10 21//11 
f 22//11 21//11 23//12 
f 24//12 23//12 25//13 
f 26//13 25//13 27//14 
f 28//14 27//14 29//15 
f 30//15 29//15 31//16 
f 32//16 31//16 33//17 
f 34//17 33//17 35//18 
f 36//19 37//20 38//21 
f 37//20 39//20 38//21 
f 40//22 35//18 36//19 
f 39//20 37//20 41//23 
f 42//23 41//23 43//24 
f 44//24 43//24 45//25 
f 46//25 45//25 47//26 
f 48//26 47//26 49//27 
f 50//27 49//27 51//28 
f 52//28 51//28 53//29 
f 54//29 53//29 55//30 
f 56//30 55//30 57//31 
f 58//31 57//31 59//32 
f 60//32 59//32 61//33 
f 62//33 61//33 63//34 
f 64//34 63//34 65//35 
f 66//35 65//35 67//36 
f 67//36 68//37 66//35 
f 69//38 70//38 71//39 
f 71//39 72//40 69//38 
f 70//38 69//38 73//41 
f 74//41 73//41 75//42 
f 76//42 75//42 77//43 
f 78//43 77//43 79//44 
f 80//44 79//44 81//45 
f 82//45 81//45 83//46 
f 84//46 83//46 85//47 
f 86//48 87//49 88//50 
f 88//50 85//47 86//48 
f 88//50 89//51 85//47 
f 87//49 90//52 91//53 
f 92//53 91//53 93//54 
f 94//54 93//54 95//55 
f 96//55 95//55 97//56 
f 98//56 97//56 99//57 
f 100//57 99//57 101//58 
f 102//58 101//58 103//59 
f 104//59 103//59 105//60 
f 106//60 105//60 107//61 
f 108//61 107//61 109//62 
f 110//62 109//62 111//63 
f 112//63 111//63 113//64 
f 114//64 113//64 115//65 
f 115//65 116//66 117//67 
f 116//66 118//66 117//67 
f 119//68 118//66 120//69 
f 118//66 116//66 120//69 
f 119//68 121//68 122//70 
f 123//70 122//70 2//1 
f 2//1 1//1 123//70 
f 122//70 123//70 119//68 
f 120//69 121//68 119//68 
f 117//67 124//71 115//65 
f 115//65 124//71 114//64 
f 113//64 114//64 112//63 
f 111//63 112//63 110//62 
f 109//62 110//62 108//61 
f 107//61 108//61 106//60 
f 105//60 106//60 104//59 
f 103//59 104//59 102//58 
f 101//58 102//58 100//57 
f 99//57 100//57 98//56 
f 97//56 98//56 96//55 
f 95//55 96//55 94//54 
f 93//54 94//54 92//53 
f 91//53 92//53 87//49 
f 86//48 90//52 87//49 
f 85//47 89//51 84//46 
f 83//46 84//46 82//45 
f 81//45 82//45 80//44 
f 79//44 80//44 78//43 
f 77//43 78//43 76//42 
f 75//42 76//42 74//41 
f 73//41 74//41 70//38 
f 71//39 68//37 72//40 
f 67//36 72//40 68//37 
f 65//35 66//35 64//34 
f 63//34 64//34 62//33 
f 61//33 62//33 60//32 
f 59//32 60//32 58//31 
f 57//31 58//31 56//30 
f 55//30 56//30 54//29 
f 53//29 54//29 52//28 
f 51//28 52//28 50//27 
f 49//27 50//27 48//26 
f 47//26 48//26 46//25 
f 45//25 46//25 44//24 
f 43//24 44//24 42//23 
f 41//23 42//23 39//20 
f 38//21 40//22 36//19 
f 35//18 40//22 34//17 
f 33//17 34//17 32//16 
f 31//16 32//16 30//15 
f 29//15 30//15 28//14 
f 27//14 28//14 26//13 
f 25//13 26//13 24//12 
f 23//12 24//12 22//11 
f 21//11 22//11 20//10 
f 19//10 20//10 18//9 
f 17//9 18//9 16//8 
f 15//8 16//8 14//7 
f 13//7 14//7 12//6 
f 11//6 12//6 10//5 
f 9//5 10//5 8//4 
f 7//4 8//4 6//3 
f 5//3 6//3 4//2 
f 3//2 4//2 1//1 
o mesh1
f 125//72 86//72 85//72 
f 126//72 73//72 69//72 
f 79//72 127//72 125//72 
f 85//72 83//72 125//72 
f 126//72 75//72 73//72 
f 83//72 81//72 125//72 
f 79//72 77//72 128//72 
f 69//72 72//72 126//72 
f 77//72 75//72 126//72 
f 128//72 127//72 79//72 
f 126//72 128//72 77//72 
f 72//72 67//72 126//72 
f 129//72 113//72 111//72 
f 129//72 115//72 113//72 
f 130//72 111//72 109//72 
f 131//72 116//72 115//72 
f 109//72 132//72 130//72 
f 133//72 105//72 103//72 
f 111//72 130//72 129//72 
f 132//72 109//72 107//72 
f 103//72 134//72 135//72 
f 134//72 103//72 101//72 
f 136//72 137//72 138//72 
f 139//72 140//72 141//72 
f 142//72 120//72 116//72 
f 107//72 143//72 132//72 
f 143//72 107//72 105//72 
f 101//72 144//72 134//72 
f 145//72 146//72 147//72 
f 146//72 145//72 136//72 
f 141//72 120//72 139//72 
f 115//72 129//72 131//72 
f 103//72 135//72 133//72 
f 138//72 146//72 136//72 
f 148//72 145//72 149//72 
f 120//72 142//72 139//72 
f 105//72 133//72 143//72 
f 144//72 101//72 99//72 
f 150//72 151//72 152//72 
f 148//72 153//72 154//72 
f 149//72 153//72 148//72 
f 116//72 131//72 142//72 
f 99//72 155//72 156//72 
f 157//72 99//72 97//72 
f 97//72 95//72 158//72 
f 125//72 159//72 160//72 
f 125//72 161//72 162//72 
f 152//72 163//72 150//72 
f 137//72 164//72 165//72 
f 147//72 149//72 145//72 
f 99//72 156//72 144//72 
f 97//72 166//72 157//72 
f 95//72 167//72 158//72 
f 168//72 169//72 91//72 
f 160//72 86//72 125//72 
f 125//72 170//72 161//72 
f 150//72 171//72 151//72 
f 172//72 173//72 174//72 
f 175//72 176//72 177//72 
f 165//72 138//72 137//72 
f 140//72 148//72 141//72 
f 97//72 178//72 166//72 
f 158//72 179//72 97//72 
f 95//72 93//72 180//72 
f 93//72 181//72 182//72 
f 90//72 183//72 168//72 
f 162//72 159//72 125//72 
f 125//72 172//72 184//72 
f 171//72 185//72 151//72 
f 172//72 125//72 173//72 
f 175//72 186//72 176//72 
f 154//72 141//72 148//72 
f 179//72 178//72 97//72 
f 95//72 187//72 188//72 
f 182//72 180//72 93//72 
f 91//72 189//72 190//72 
f 91//72 90//72 168//72 
f 191//72 183//72 90//72 
f 184//72 170//72 125//72 
f 174//72 151//72 172//72 
f 163//72 152//72 192//72 
f 177//72 193//72 175//72 
f 157//72 155//72 99//72 
f 180//72 187//72 95//72 
f 190//72 93//72 91//72 
f 169//72 194//72 91//72 
f 86//72 195//72 191//72 
f 86//72 196//72 197//72 
f 185//72 172//72 151//72 
f 192//72 198//72 199//72 
f 177//72 198//72 193//72 
f 188//72 167//72 95//72 
f 194//72 189//72 91//72 
f 86//72 200//72 195//72 
f 197//72 201//72 86//72 
f 192//72 199//72 163//72 
f 198//72 192//72 193//72 
f 190//72 181//72 93//72 
f 201//72 200//72 86//72 
f 175//72 165//72 186//72 
f 90//72 86//72 191//72 
f 164//72 186//72 165//72 
f 202//72 203//72 204//72 
f 204//72 205//72 202//72 
f 204//72 206//72 205//72 
f 207//72 208//72 13//72 
f 209//72 210//72 203//72 
f 209//72 211//72 212//72 
f 213//72 214//72 21//72 
f 208//72 215//72 15//72 
f 13//72 11//72 207//72 
f 212//72 210//72 209//72 
f 216//72 217//72 23//72 
f 21//72 19//72 213//72 
f 11//72 9//72 207//72 
f 204//72 218//72 206//72 
f 214//72 216//72 21//72 
f 219//72 213//72 19//72 
f 215//72 219//72 17//72 
f 9//72 220//72 207//72 
f 218//72 221//72 222//72 
f 202//72 209//72 203//72 
f 209//72 223//72 224//72 
f 19//72 17//72 219//72 
f 15//72 13//72 208//72 
f 9//72 225//72 226//72 
f 204//72 221//72 218//72 
f 209//72 227//72 223//72 
f 209//72 225//72 228//72 
f 229//72 7//72 5//72 
f 230//72 231//72 27//72 
f 17//72 15//72 215//72 
f 225//72 209//72 226//72 
f 209//72 232//72 211//72 
f 228//72 227//72 209//72 
f 233//72 9//72 7//72 
f 5//72 234//72 235//72 
f 120//72 141//72 236//72 
f 237//72 238//72 239//72 
f 27//72 25//72 230//72 
f 217//72 240//72 25//72 
f 226//72 220//72 9//72 
f 224//72 232//72 209//72 
f 7//72 241//72 233//72 
f 5//72 235//72 229//72 
f 236//72 242//72 120//72 
f 243//72 244//72 245//72 
f 245//72 246//72 247//72 
f 245//72 248//72 249//72 
f 237//72 250//72 238//72 
f 251//72 252//72 253//72 
f 25//72 254//72 230//72 
f 25//72 23//72 217//72 
f 222//72 237//72 218//72 
f 229//72 241//72 7//72 
f 3//72 255//72 256//72 
f 120//72 257//72 258//72 
f 242//72 259//72 120//72 
f 260//72 261//72 262//72 
f 261//72 260//72 263//72 
f 264//72 141//72 265//72 
f 266//72 267//72 268//72 
f 243//72 266//72 244//72 
f 249//72 246//72 245//72 
f 237//72 269//72 250//72 
f 270//72 237//72 251//72 
f 27//72 271//72 272//72 
f 240//72 254//72 25//72 
f 233//72 225//72 9//72 
f 3//72 273//72 255//72 
f 121//72 274//72 275//72 
f 276//72 274//72 121//72 
f 259//72 257//72 120//72 
f 141//72 277//72 278//72 
f 141//72 279//72 280//72 
f 263//72 281//72 261//72 
f 265//72 282//72 264//72 
f 283//72 36//72 35//72 
f 268//72 284//72 266//72 
f 266//72 243//72 285//72 
f 245//72 286//72 287//72 
f 245//72 239//72 248//72 
f 237//72 288//72 269//72 
f 253//72 270//72 251//72 
f 272//72 29//72 27//72 
f 23//72 21//72 216//72 
f 256//72 5//72 3//72 
f 122//72 121//72 289//72 
f 121//72 120//72 276//72 
f 120//72 290//72 291//72 
f 278//72 236//72 141//72 
f 141//72 292//72 279//72 
f 282//72 260//72 264//72 
f 36//72 293//72 294//72 
f 35//72 295//72 296//72 
f 295//72 35//72 33//72 
f 285//72 267//72 266//72 
f 245//72 297//72 286//72 
f 239//72 245//72 237//72 
f 270//72 298//72 237//72 
f 299//72 36//72 300//72 
f 27//72 301//72 271//72 
f 256//72 234//72 5//72 
f 237//72 302//72 303//72 
f 2//72 304//72 305//72 
f 2//72 122//72 306//72 
f 289//72 307//72 122//72 
f 291//72 276//72 120//72 
f 280//72 277//72 141//72 
f 262//72 264//72 260//72 
f 308//72 309//72 310//72 
f 36//72 311//72 293//72 
f 35//72 296//72 283//72 
f 33//72 312//72 313//72 
f 314//72 253//72 315//72 
f 245//72 287//72 243//72 
f 298//72 288//72 237//72 
f 299//72 316//72 317//72 
f 36//72 318//72 300//72 
f 231//72 301//72 27//72 
f 237//72 319//72 320//72 
f 237//72 321//72 322//72 
f 303//72 323//72 237//72 
f 237//72 245//72 324//72 
f 2//72 325//72 304//72 
f 306//72 326//72 2//72 
f 275//72 289//72 121//72 
f 264//72 292//72 141//72 
f 310//72 327//72 308//72 
f 294//72 328//72 36//72 
f 33//72 313//72 295//72 
f 253//72 252//72 315//72 
f 247//72 297//72 245//72 
f 299//72 329//72 330//72 
f 300//72 316//72 299//72 
f 320//72 218//72 237//72 
f 323//72 321//72 237//72 
f 324//72 331//72 237//72 
f 3//72 305//72 332//72 
f 326//72 325//72 2//72 
f 258//72 290//72 120//72 
f 281//72 263//72 309//72 
f 314//72 333//72 334//72 
f 283//72 311//72 36//72 
f 33//72 31//72 335//72 
f 31//72 336//72 337//72 
f 29//72 338//72 336//72 
f 284//72 299//72 266//72 
f 317//72 329//72 299//72 
f 322//72 319//72 237//72 
f 331//72 339//72 237//72 
f 305//72 3//72 2//72 
f 122//72 340//72 341//72 
f 308//72 281//72 309//72 
f 334//72 310//72 314//72 
f 33//72 342//72 312//72 
f 31//72 343//72 335//72 
f 336//72 31//72 29//72 
f 29//72 344//72 345//72 
f 330//72 266//72 299//72 
f 339//72 302//72 237//72 
f 341//72 306//72 122//72 
f 334//72 327//72 310//72 
f 335//72 342//72 33//72 
f 345//72 338//72 29//72 
f 272//72 344//72 29//72 
f 307//72 340//72 122//72 
f 337//72 343//72 31//72 
f 332//72 273//72 3//72 
f 315//72 333//72 314//72 
f 346//72 299//72 347//72 
f 348//72 349//72 53//72 
f 350//72 348//72 51//72 
f 351//72 352//72 353//72 
f 351//72 354//72 355//72 
f 347//72 356//72 357//72 
f 358//72 359//72 55//72 
f 51//72 49//72 350//72 
f 360//72 350//72 49//72 
f 361//72 360//72 47//72 
f 362//72 361//72 45//72 
f 363//72 362//72 43//72 
f 355//72 352//72 351//72 
f 351//72 347//72 364//72 
f 347//72 357//72 346//72 
f 67//72 365//72 366//72 
f 55//72 53//72 358//72 
f 49//72 47//72 360//72 
f 45//72 43//72 362//72 
f 43//72 41//72 363//72 
f 367//72 363//72 37//72 
f 364//72 354//72 351//72 
f 347//72 351//72 356//72 
f 366//72 126//72 67//72 
f 67//72 368//72 369//72 
f 370//72 67//72 65//72 
f 57//72 371//72 372//72 
f 373//72 371//72 57//72 
f 53//72 349//72 358//72 
f 47//72 45//72 361//72 
f 37//72 36//72 367//72 
f 36//72 374//72 375//72 
f 374//72 36//72 299//72 
f 346//72 376//72 299//72 
f 377//72 378//72 379//72 
f 126//72 380//72 381//72 
f 126//72 382//72 383//72 
f 369//72 365//72 67//72 
f 67//72 384//72 385//72 
f 65//72 386//72 370//72 
f 65//72 387//72 388//72 
f 57//72 55//72 373//72 
f 53//72 51//72 348//72 
f 375//72 367//72 36//72 
f 353//72 389//72 351//72 
f 390//72 391//72 392//72 
f 393//72 394//72 391//72 
f 393//72 395//72 396//72 
f 395//72 397//72 398//72 
f 399//72 397//72 400//72 
f 377//72 401//72 378//72 
f 126//72 402//72 380//72 
f 366//72 382//72 126//72 
f 67//72 403//72 384//72 
f 388//72 386//72 65//72 
f 59//72 57//72 404//72 
f 359//72 373//72 55//72 
f 299//72 376//72 374//72 
f 391//72 390//72 393//72 
f 398//72 396//72 395//72 
f 401//72 377//72 405//72 
f 379//72 399//72 377//72 
f 383//72 402//72 126//72 
f 370//72 403//72 67//72 
f 63//72 406//72 387//72 
f 404//72 407//72 59//72 
f 41//72 37//72 363//72 
f 351//72 389//72 390//72 
f 396//72 394//72 393//72 
f 400//72 377//72 399//72 
f 385//72 368//72 67//72 
f 63//72 408//72 406//72 
f 372//72 404//72 57//72 
f 395//72 400//72 397//72 
f 405//72 409//72 401//72 
f 387//72 65//72 63//72 
f 63//72 410//72 411//72 
f 61//72 412//72 410//72 
f 61//72 59//72 413//72 
f 392//72 351//72 390//72 
f 409//72 414//72 401//72 
f 411//72 408//72 63//72 
f 61//72 415//72 412//72 
f 413//72 416//72 61//72 
f 59//72 417//72 418//72 
f 414//72 126//72 401//72 
f 410//72 63//72 61//72 
f 418//72 413//72 59//72 
f 381//72 401//72 126//72 
f 407//72 417//72 59//72 
f 416//72 415//72 61//72 
f 328//72 318//72 36//72 
f 160//72 196//72 86//72 
f 125//72 81//72 79//72 
o mesh2
f 412//73 415//74 419//74 
f 410//75 412//73 420//76 
f 411//77 410//75 421//78 
f 408//79 411//77 422//80 
f 406//81 408//79 423//82 
f 387//83 406//81 424//84 
f 388//85 387//83 425//86 
f 386//87 388//85 426//88 
f 370//89 386//87 427//90 
f 403//91 370//89 428//92 
f 384//93 403//91 429//94 
f 385//95 384//93 430//96 
f 368//97 385//95 431//98 
f 369//99 368//97 432//100 
f 365//101 369//99 433//102 
f 366//103 365//101 434//104 
f 382//105 366//103 435//106 
f 383//107 382//105 436//108 
f 402//109 383//107 437//110 
f 380//111 402//109 438//112 
f 381//113 380//111 439//114 
f 401//115 381//113 440//116 
f 378//117 401//115 441//118 
f 379//119 378//117 442//120 
f 399//121 379//119 443//122 
f 397//123 399//121 444//124 
f 398//125 397//123 445//126 
f 396//127 398//125 446//128 
f 394//129 396//127 447//130 
f 391//131 394//129 448//132 
f 392//133 391//131 449//134 
f 351//135 392//133 450//136 
f 356//137 351//135 451//138 
f 357//139 356//137 452//140 
f 346//141 357//139 453//142 
f 376//143 346//141 454//144 
f 374//145 376//143 455//146 
f 375//147 374//145 456//148 
f 367//149 375//147 457//150 
f 363//151 367//149 458//152 
f 362//153 363//151 459//154 
f 361//155 362//153 460//156 
f 360//157 361//155 461//158 
f 350//159 360//157 462//160 
f 348//161 350//159 463//162 
f 349//163 348//161 464//164 
f 358//165 349//163 465//166 
f 359//167 358//165 466//168 
f 373//169 359//167 467//170 
f 371//171 373//169 468//172 
f 372//173 371//171 469//174 
f 404//175 372//173 470//176 
f 407//177 404//175 471//178 
f 417//179 407//177 472//180 
f 418//181 417//179 473//182 
f 413//183 418//181 474//184 
f 416//185 413//183 475//186 
f 415//74 416//185 476//185 
f 476//185 419//74 415//74 
f 475//186 476//185 416//185 
f 474//184 475//186 413//183 
f 473//182 474//184 418//181 
f 472//180 473//182 417//179 
f 471//178 472//180 407//177 
f 470//176 471//178 404//175 
f 469//174 470//176 372//173 
f 468//172 469//174 371//171 
f 467//170 468//172 373//169 
f 466//168 467//170 359//167 
f 465//166 466//168 358//165 
f 464//164 465//166 349//163 
f 463//162 464//164 348//161 
f 462//160 463//162 350//159 
f 461//158 462//160 360//157 
f 460//156 461//158 361//155 
f 459//154 460//156 362//153 
f 458//152 459//154 363//151 
f 457//150 458//152 367//149 
f 456//148 457//150 375//147 
f 455//146 456//148 374//145 
f 454//144 455//146 376//143 
f 453//142 454//144 346//141 
f 452//140 453//142 357//139 
f 451//138 452//140 356//137 
f 450//136 451//138 351//135 
f 449//134 450//136 392//133 
f 448//132 449//134 391//131 
f 447//130 448//132 394//129 
f 446//128 447//130 396//127 
f 445//126 446//128 398//125 
f 444//124 445//126 397//123 
f 443//122 444//124 399//121 
f 442//120 443//122 379//119 
f 441//118 442//120 378//117 
f 440//116 441//118 401//115 
f 439//114 440//116 381//113 
f 438//112 439//114 380//111 
f 437//110 438//112 402//109 
f 436//108 437//110 383//107 
f 435//106 436//108 382//105 
f 434//104 435//106 366//103 
f 433//102 434//104 365//101 
f 432//100 433//102 369//99 
f 431//98 432//100 368//97 
f 430//96 431//98 385//95 
f 429//94 430//96 384//93 
f 428//92 429//94 403//91 
f 427//90 428//92 370//89 
f 426//88 427//90 386//87 
f 425//86 426//88 388//85 
f 424//84 425//86 387//83 
f 423//82 424//84 406//81 
f 422//80 423//82 408//79 
f 421//78 422//80 411//77 
f 420//76 421//78 410//75 
f 419//74 420//76 412//73 
o mesh3
f 197//187 196//188 477//188 
f 201//189 197//187 478//190 
f 200//191 201//189 479//192 
f 195//193 200//191 480//194 
f 191//195 195//193 481//196 
f 183//197 191//195 482//198 
f 168//199 183//197 483//200 
f 169//201 168//199 484//202 
f 194//203 169//201 485//204 
f 189//205 194//203 486//206 
f 190//207 189//205 487//208 
f 181//209 190//207 488//210 
f 182//211 181//209 489//212 
f 180//213 182//211 490//214 
f 187//215 180//213 491//216 
f 188//217 187//215 492//218 
f 167//219 188//217 493//220 
f 158//221 167//219 494//222 
f 179//223 158//221 495//224 
f 178//225 179//223 496//226 
f 166//227 178//225 497//228 
f 157//229 166//227 498//230 
f 155//231 157//229 499//232 
f 156//233 155//231 500//234 
f 144//235 156//233 501//236 
f 134//237 144//235 502//238 
f 135//239 134//237 503//240 
f 133//241 135//239 504//242 
f 143//243 133//241 505//244 
f 132//245 143//243 506//246 
f 130//247 132//245 507//248 
f 129//249 130//247 508//250 
f 131//251 129//249 509//252 
f 142//253 131//251 510//254 
f 139//255 142//253 511//256 
f 140//257 139//255 512//258 
f 148//259 140//257 513//260 
f 145//261 148//259 514//262 
f 136//263 145//261 515//264 
f 137//265 136//263 516//266 
f 164//267 137//265 517//268 
f 186//269 164//267 518//270 
f 176//271 186//269 519//272 
f 177//273 176//271 520//274 
f 198//275 177//273 521//276 
f 199//277 198//275 522//278 
f 163//279 199//277 523//280 
f 150//281 163//279 524//282 
f 171//283 150//281 525//284 
f 185//285 171//283 526//286 
f 172//287 185//285 527//288 
f 184//289 172//287 528//290 
f 170//291 184//289 529//292 
f 161//293 170//291 530//294 
f 162//295 161//293 531//296 
f 159//297 162//295 532//298 
f 160//299 159//297 533//300 
f 196//188 160//299 534//299 
f 534//299 477//188 196//188 
f 533//300 534//299 160//299 
f 532//298 533//300 159//297 
f 531//296 532//298 162//295 
f 530//294 531//296 161//293 
f 529//292 530//294 170//291 
f 528//290 529//292 184//289 
f 527//288 528//290 172//287 
f 526//286 527//288 185//285 
f 525//284 526//286 171//283 
f 524//282 525//284 150//281 
f 523//280 524//282 163//279 
f 522//278 523//280 199//277 
f 521//276 522//278 198//275 
f 520//274 521//276 177//273 
f 519//272 520//274 176//271 
f 518//270 519//272 186//269 
f 517//268 518//270 164//267 
f 516//266 517//268 137//265 
f 515//264 516//266 136//263 
f 514//262 515//264 145//261 
f 513//260 514//262 148//259 
f 512//258 513//260 140//257 
f 511//256 512//258 139//255 
f 510//254 511//256 142//253 
f 509//252 510//254 131//251 
f 508//250 509//252 129//249 
f 507//248 508//250 130//247 
f 506//246 507//248 132//245 
f 505//244 506//246 143//243 
f 504//242 505//244 133//241 
f 503//240 504//242 135//239 
f 502//238 503//240 134//237 
f 501//236 502//238 144//235 
f 500//234 501//236 156//233 
f 499//232 500//234 155//231 
f 498//230 499//232 157//229 
f 497//228 498//230 166//227 
f 496//226 497//228 178//225 
f 495//224 496//226 179//223 
f 494//222 495//224 158//221 
f 493//220 494//222 167//219 
f 492//218 493//220 188//217 
f 491//216 492//218 187//215 
f 490//214 491//216 180//213 
f 489//212 490//214 182//211 
f 488//210 489//212 181//209 
f 487//208 488//210 190//207 
f 486//206 487//208 189//205 
f 485//204 486//206 194//203 
f 484//202 485//204 169//201 
f 483//200 484//202 168//199 
f 482//198 483//200 183//197 
f 481//196 482//198 191//195 
f 480//194 481//196 195//193 
f 479//192 480//194 200//191 
f 478//190 479//192 201//189 
f 477//188 478//190 197//187 
o mesh4
f 334//301 333//302 535//302 
f 327//303 334//301 536//304 
f 308//305 327//303 537//306 
f 281//307 308//305 538//308 
f 261//309 281//307 539//310 
f 262//311 261//309 540//312 
f 264//313 262//311 541//314 
f 292//315 264//313 542//316 
f 279//317 292//315 543//318 
f 280//319 279//317 544//320 
f 277//321 280//319 545//322 
f 278//323 277//321 546//324 
f 236//325 278//323 547//326 
f 242//327 236//325 548//328 
f 259//329 242//327 549//330 
f 257//331 259//329 550//332 
f 258//333 257//331 551//334 
f 290//335 258//333 552//336 
f 291//337 290//335 553//338 
f 276//339 291//337 554//340 
f 274//341 276//339 555//342 
f 275//343 274//341 556//344 
f 289//345 275//343 557//346 
f 307//347 289//345 558//348 
f 340//349 307//347 559//350 
f 341//351 340//349 560//352 
f 306//353 341//351 561//354 
f 326//355 306//353 562//356 
f 325//357 326//355 563//358 
f 304//359 325//357 564//360 
f 305//361 304//359 565//362 
f 332//363 305//361 566//364 
f 273//365 332//363 567//366 
f 255//367 273//365 568//368 
f 256//369 255//367 569//370 
f 234//371 256//369 570//372 
f 235//373 234//371 571//374 
f 229//375 235//373 572//376 
f 241//377 229//375 573//378 
f 233//379 241//377 574//380 
f 225//381 233//379 575//382 
f 228//383 225//381 576//384 
f 227//385 228//383 577//386 
f 223//387 227//385 578//388 
f 224//389 223//387 579//390 
f 232//391 224//389 580//392 
f 211//393 232//391 581//394 
f 212//395 211//393 582//396 
f 210//397 212//395 583//398 
f 203//399 210//397 584//400 
f 204//401 203//399 585//402 
f 221//403 204//401 586//404 
f 222//405 221//403 587//406 
f 237//407 222//405 588//408 
f 251//409 237//407 589//410 
f 252//411 251//409 590//412 
f 315//413 252//411 591//414 
f 333//302 315//413 592//413 
f 592//413 535//302 333//302 
f 591//414 592//413 315//413 
f 590//412 591//414 252//411 
f 589//410 590//412 251//409 
f 588//408 589//410 237//407 
f 587//406 588//408 222//405 
f 586//404 587//406 221//403 
f 585//402 586//404 204//401 
f 584//400 585//402 203//399 
f 583//398 584//400 210//397 
f 582//396 583//398 212//395 
f 581//394 582//396 211//393 
f 580//392 581//394 232//391 
f 579//390 580//392 224//389 
f 578//388 579//390 223//387 
f 577//386 578//388 227//385 
f 576//384 577//386 228//383 
f 575//382 576//384 225//381 
f 574//380 575//382 233//379 
f 573//378 574//380 241//377 
f 572//376 573//378 229//375 
f 571//374 572//376 235//373 
f 570//372 571//374 234//371 
f 569//370 570//372 256//369 
f 568//368 569//370 255//367 
f 567//366 568//368 273//365 
f 566//364 567//366 332//363 
f 565//362 566//364 305//361 
f 564//360 565//362 304//359 
f 563//358 564//360 325//357 
f 562//356 563//358 326//355 
f 561//354 562//356 306//353 
f 560//352 561//354 341//351 
f 559//350 560//352 340//349 
f 558//348 559//350 307//347 
f 557//346 558//348 289//345 
f 556//344 557//346 275//343 
f 555//342 556//344 274//341 
f 554//340 555//342 276//339 
f 553//338 554//340 291//337 
f 552//336 553//338 290//335 
f 551//334 552//336 258//333 
f 550//332 551//334 257//331 
f 549//330 550//332 259//329 
f 548//328 549//330 242//327 
f 547//326 548//328 236//325 
f 546//324 547//326 278//323 
f 545//322 546//324 277//321 
f 544//320 545//322 280//319 
f 543//318 544//320 279//317 
f 542//316 543//318 292//315 
f 541//314 542//316 264//313 
f 540//312 541//314 262//311 
f 539//310 540//312 261//309 
f 538//308 539//310 281//307 
f 537//306 538//308 308//305 
f 536//304 537//306 327//303 
f 535//302 536//304 334//301 
o mesh5
f 300//415 318//416 593//416 
f 316//417 300//415 594//418 
f 317//419 316//417 595//420 
f 329//421 317//419 596//422 
f 330//423 329//421 597//424 
f 266//425 330//423 598//426 
f 244//427 266//425 599//428 
f 245//429 244//427 600//430 
f 324//431 245//429 601//432 
f 331//433 324//431 602//434 
f 339//435 331//433 603//436 
f 302//437 339//435 604//438 
f 303//439 302//437 605//440 
f 323//441 303//439 606//442 
f 321//443 323//441 607//444 
f 322//445 321//443 608//446 
f 319//447 322//445 609//448 
f 320//449 319//447 610//450 
f 218//451 320//449 611//452 
f 206//453 218//451 612//454 
f 205//455 206//453 613//456 
f 202//457 205//455 614//458 
f 209//459 202//457 615//460 
f 226//461 209//459 616//462 
f 220//463 226//461 617//464 
f 207//465 220//463 618//466 
f 208//467 207//465 619//468 
f 215//469 208//467 620//470 
f 219//471 215//469 621//472 
f 213//473 219//471 622//474 
f 214//475 213//473 623//476 
f 216//477 214//475 624//478 
f 217//479 216//477 625//480 
f 240//481 217//479 626//482 
f 254//483 240//481 627//484 
f 230//485 254//483 628//486 
f 231//487 230//485 629//488 
f 301//489 231//487 630//490 
f 271//491 301//489 631//492 
f 272//493 271//491 632//494 
f 344//495 272//493 633//496 
f 345//497 344//495 634//498 
f 338//499 345//497 635//500 
f 336//501 338//499 636//502 
f 337//503 336//501 637//504 
f 343//505 337//503 638//506 
f 335//507 343//505 639//508 
f 342//509 335//507 640//510 
f 312//511 342//509 641//512 
f 313//513 312//511 642//514 
f 295//515 313//513 643//516 
f 296//517 295//515 644//518 
f 283//519 296//517 645//520 
f 311//521 283//519 646//522 
f 293//523 311//521 647//524 
f 294//525 293//523 648//526 
f 328//527 294//525 649//528 
f 318//416 328//527 650//527 
f 650//527 593//416 318//416 
f 649//528 650//527 328//527 
f 648//526 649//528 294//525 
f 647//524 648//526 293//523 
f 646//522 647//524 311//521 
f 645//520 646//522 283//519 
f 644//518 645//520 296//517 
f 643//516 644//518 295//515 
f 642//514 643//516 313//513 
f 641//512 642//514 312//511 
f 640//510 641//512 342//509 
f 639//508 640//510 335//507 
f 638//506 639//508 343//505 
f 637//504 638//506 337//503 
f 636//502 637//504 336//501 
f 635//500 636//502 338//499 
f 634//498 635//500 345//497 
f 633//496 634//498 344//495 
f 632//494 633//496 272//493 
f 631//492 632//494 271//491 
f 630//490 631//492 301//489 
f 629//488 630//490 231//487 
f 628//486 629//488 230//485 
f 627//484 628//486 254//483 
f 626//482 627//484 240//481 
f 625//480 626//482 217//479 
f 624//478 625//480 216//477 
f 623//476 624//478 214//475 
f 622//474 623//476 213//473 
f 621//472 622//474 219//471 
f 620//470 621//472 215//469 
f 619//468 620//470 208//467 
f 618//466 619//468 207//465 
f 617//464 618//466 220//463 
f 616//462 617//464 226//461 
f 615//460 616//462 209//459 
f 614//458 615//460 202//457 
f 613//456 614//458 205//455 
f 612//454 613//456 206//453 
f 611//452 612//454 218//451 
f 610//450 611//452 320//449 
f 609//448 610//450 319//447 
f 608//446 609//448 322//445 
f 607//444 608//446 321//443 
f 606//442 607//444 323//441 
f 605//440 606//442 303//439 
f 604//438 605//440 302//437 
f 603//436 604//438 339//435 
f 602//434 603//436 331//433 
f 601//432 602//434 324//431 
f 600//430 601//432 245//429 
f 599//428 600//430 244//427 
f 598//426 599//428 266//425 
f 597//424 598//426 330//423 
f 596//422 597//424 329//421 
f 595//420 596//422 317//419 
f 594//418 595//420 316//417 
f 593//416 594//418 300//415 
o mesh6
f 651//529 652//530 314//530 
f 653//531 651//529 310//532 
f 654//533 653//531 309//534 
f 655//535 654//533 263//536 
f 656//537 655//535 260//538 
f 657//539 656//537 282//540 
f 657//539 265//539 141//541 
f 141//541 658//542 657//539 
f 659//543 658//542 154//542 
f 660//544 659//543 153//543 
f 661//545 660//544 149//544 
f 662//546 661//545 147//545 
f 663//547 662//546 146//546 
f 664//548 663//547 138//547 
f 665//549 664//548 165//548 
f 666//550 665//549 175//549 
f 667//551 666//550 193//550 
f 668//552 667//551 192//551 
f 669//553 668//552 152//552 
f 670//554 669//553 151//553 
f 671//555 670//554 174//554 
f 671//555 173//555 125//556 
f 125//556 672//557 671//555 
f 673//558 672//557 127//557 
f 673//558 128//558 126//559 
f 126//559 674//560 673//558 
f 675//561 674//560 414//560 
f 676//562 675//561 409//561 
f 677//563 676//562 405//562 
f 678//564 677//563 377//563 
f 679//565 678//564 400//564 
f 680//566 679//565 395//565 
f 681//567 680//566 393//566 
f 682//568 681//567 390//567 
f 683//569 682//568 389//568 
f 684//570 683//569 353//569 
f 685//571 684//570 352//570 
f 686//572 685//571 355//571 
f 687//573 686//572 354//572 
f 688//574 687//573 364//573 
f 689//575 688//574 299//576 
f 688//574 347//577 299//576 
f 690//578 689//575 284//579 
f 691//580 690//578 268//581 
f 692//582 691//580 267//583 
f 693//584 692//582 285//585 
f 694//586 693//584 243//587 
f 695//588 694//586 287//589 
f 696//590 695//588 286//591 
f 697//592 696//590 297//593 
f 698//594 697//592 247//595 
f 699//596 698//594 246//597 
f 700//598 699//596 249//599 
f 701//600 700//598 248//601 
f 702//602 701//600 239//603 
f 703//604 702//602 238//605 
f 704//606 703//604 250//607 
f 705//608 704//606 269//609 
f 706//610 705//608 288//611 
f 707//612 706//610 298//613 
f 708//614 707//612 270//615 
f 652//530 708//614 253//614 
f 253//614 314//530 652//530 
f 270//615 253//614 708//614 
f 298//613 270//615 707//612 
f 288//611 298//613 706//610 
f 269//609 288//611 705//608 
f 250//607 269//609 704//606 
f 238//605 250//607 703//604 
f 239//603 238//605 702//602 
f 248//601 239//603 701//600 
f 249//599 248//601 700//598 
f 246//597 249//599 699//596 
f 247//595 246//597 698//594 
f 297//593 247//595 697//592 
f 286//591 297//593 696//590 
f 287//589 286//591 695//588 
f 243//587 287//589 694//586 
f 285//585 243//587 693//584 
f 267//583 285//585 692//582 
f 268//581 267//583 691//580 
f 284//579 268//581 690//578 
f 299//576 284//579 689//575 
f 364//573 347//577 688//574 
f 354//572 364//573 687//573 
f 355//571 354//572 686//572 
f 352//570 355//571 685//571 
f 353//569 352//570 684//570 
f 389//568 353//569 683//569 
f 390//567 389//568 682//568 
f 393//566 390//567 681//567 
f 395//565 393//566 680//566 
f 400//564 395//565 679//565 
f 377//563 400//564 678//564 
f 405//562 377//563 677//563 
f 409//561 405//562 676//562 
f 414//560 409//561 675//561 
f 126//559 414//560 674//560 
f 127//557 128//558 673//558 
f 125//556 127//557 672//557 
f 174//554 173//555 671//555 
f 151//553 174//554 670//554 
f 152//552 151//553 669//553 
f 192//551 152//552 668//552 
f 193//550 192//551 667//551 
f 175//549 193//550 666//550 
f 165//548 175//549 665//549 
f 138//547 165//548 664//548 
f 146//546 138//547 663//547 
f 147//545 146//546 662//546 
f 149//544 147//545 661//545 
f 153//543 149//544 660//544 
f 154//542 153//543 659//543 
f 141//541 154//542 658//542 
f 282//540 265//539 657//539 
f 260//538 282//540 656//537 
f 263//536 260//538 655//535 
f 309//534 263//536 654//533 
f 310//532 309//534 653//531 
f 314//530 310//532 651//529 
o mesh7
f 709//616 595//616 594//616 
f 38//616 649//616 648//616 
f 594//616 38//616 709//616 
f 646//616 645//616 40//616 
f 38//616 650//616 649//616 
f 594//616 593//616 38//616 
f 117//616 549//616 548//616 
f 644//616 643//616 34//616 
f 40//616 38//616 646//616 
f 593//616 650//616 38//616 
f 709//616 597//616 596//616 
f 710//616 584//616 583//616 
f 117//616 550//616 549//616 
f 34//616 40//616 644//616 
f 38//616 647//616 646//616 
f 596//616 595//616 709//616 
f 709//616 599//616 598//616 
f 710//616 585//616 584//616 
f 117//616 551//616 550//616 
f 117//616 553//616 552//616 
f 645//616 644//616 40//616 
f 598//616 597//616 709//616 
f 709//616 601//616 600//616 
f 710//616 586//616 585//616 
f 711//616 542//616 541//616 
f 711//616 546//616 545//616 
f 711//616 548//616 547//616 
f 552//616 551//616 117//616 
f 554//616 117//616 118//616 
f 555//616 118//616 119//616 
f 119//616 558//616 557//616 
f 34//616 641//616 640//616 
f 648//616 647//616 38//616 
f 709//616 602//616 601//616 
f 573//616 572//616 6//616 
f 8//616 578//616 577//616 
f 710//616 580//616 579//616 
f 710//616 587//616 586//616 
f 541//616 540//616 711//616 
f 545//616 544//616 711//616 
f 548//616 711//616 117//616 
f 118//616 555//616 554//616 
f 557//616 556//616 119//616 
f 123//616 559//616 558//616 
f 640//616 32//616 34//616 
f 643//616 642//616 34//616 
f 709//616 603//616 602//616 
f 709//616 605//616 604//616 
f 709//616 607//616 606//616 
f 709//616 712//616 608//616 
f 712//616 616//616 615//616 
f 6//616 8//616 573//616 
f 8//616 579//616 578//616 
f 710//616 581//616 580//616 
f 583//616 582//616 710//616 
f 710//616 589//616 588//616 
f 710//616 711//616 535//616 
f 711//616 543//616 542//616 
f 547//616 546//616 711//616 
f 119//616 556//616 555//616 
f 123//616 560//616 559//616 
f 623//616 20//616 22//616 
f 629//616 26//616 28//616 
f 642//616 641//616 34//616 
f 604//616 603//616 709//616 
f 608//616 607//616 709//616 
f 712//616 610//616 609//616 
f 615//616 614//616 712//616 
f 712//616 621//616 620//616 
f 4//616 6//616 570//616 
f 8//616 574//616 573//616 
f 8//616 576//616 575//616 
f 579//616 8//616 710//616 
f 588//616 587//616 710//616 
f 535//616 592//616 710//616 
f 711//616 537//616 536//616 
f 544//616 543//616 711//616 
f 558//616 119//616 123//616 
f 22//616 625//616 624//616 
f 625//616 22//616 24//616 
f 626//616 24//616 26//616 
f 28//616 631//616 630//616 
f 600//616 599//616 709//616 
f 609//616 608//616 712//616 
f 614//616 613//616 712//616 
f 712//616 618//616 617//616 
f 620//616 619//616 712//616 
f 570//616 569//616 4//616 
f 575//616 574//616 8//616 
f 582//616 581//616 710//616 
f 710//616 591//616 590//616 
f 536//616 535//616 711//616 
f 711//616 539//616 538//616 
f 554//616 553//616 117//616 
f 622//616 18//616 20//616 
f 24//616 626//616 625//616 
f 26//616 628//616 627//616 
f 28//616 630//616 629//616 
f 28//616 30//616 633//616 
f 30//616 636//616 635//616 
f 30//616 32//616 637//616 
f 606//616 605//616 709//616 
f 712//616 612//616 611//616 
f 617//616 616//616 712//616 
f 712//616 622//616 621//616 
f 6//616 571//616 570//616 
f 577//616 576//616 8//616 
f 592//616 591//616 710//616 
f 540//616 539//616 711//616 
f 1//616 563//616 562//616 
f 10//616 12//616 713//616 
f 22//616 624//616 623//616 
f 629//616 628//616 26//616 
f 30//616 634//616 633//616 
f 637//616 636//616 30//616 
f 32//616 639//616 638//616 
f 611//616 610//616 712//616 
f 619//616 618//616 712//616 
f 1//616 4//616 566//616 
f 572//616 571//616 6//616 
f 538//616 537//616 711//616 
f 123//616 562//616 561//616 
f 1//616 564//616 563//616 
f 710//616 8//616 10//616 
f 14//616 714//616 715//616 
f 16//616 716//616 714//616 
f 18//616 717//616 716//616 
f 18//616 622//616 712//616 
f 26//616 627//616 626//616 
f 633//616 632//616 28//616 
f 638//616 637//616 32//616 
f 613//616 612//616 712//616 
f 566//616 565//616 1//616 
f 4//616 568//616 567//616 
f 590//616 589//616 710//616 
f 562//616 123//616 1//616 
f 12//616 715//616 713//616 
f 714//616 14//616 16//616 
f 18//616 718//616 717//616 
f 712//616 719//616 18//616 
f 632//616 631//616 28//616 
f 640//616 639//616 32//616 
f 567//616 566//616 4//616 
f 561//616 560//616 123//616 
f 715//616 12//616 14//616 
f 719//616 718//616 18//616 
f 635//616 634//616 30//616 
f 38//616 720//616 721//616 
f 117//616 711//616 722//616 
f 569//616 568//616 4//616 
f 716//616 16//616 18//616 
f 721//616 709//616 38//616 
f 565//616 564//616 1//616 
f 20//616 623//616 622//616 
f 713//616 710//616 10//616 
f 88//616 479//616 478//616 
f 509//616 508//616 112//616 
f 478//616 477//616 88//616 
f 508//616 507//616 110//616 
f 112//616 114//616 509//616 
f 510//616 117//616 723//616 
f 724//616 533//616 532//616 
f 724//616 88//616 534//616 
f 88//616 480//616 479//616 
f 505//616 504//616 104//616 
f 114//616 124//616 509//616 
f 510//616 509//616 124//616 
f 117//616 725//616 723//616 
f 117//616 726//616 727//616 
f 724//616 525//616 524//616 
f 532//616 531//616 724//616 
f 477//616 534//616 88//616 
f 482//616 88//616 87//616 
f 484//616 87//616 92//616 
f 98//616 496//616 495//616 
f 499//616 498//616 98//616 
f 503//616 502//616 102//616 
f 104//616 106//616 505//616 
f 507//616 506//616 108//616 
f 124//616 117//616 510//616 
f 727//616 725//616 117//616 
f 724//616 526//616 525//616 
f 724//616 530//616 529//616 
f 534//616 533//616 724//616 
f 87//616 483//616 482//616 
f 92//616 485//616 484//616 
f 495//616 96//616 98//616 
f 100//616 500//616 499//616 
f 502//616 501//616 100//616 
f 504//616 503//616 104//616 
f 506//616 505//616 106//616 
f 110//616 112//616 508//616 
f 117//616 728//616 726//616 
f 511//616 723//616 729//616 
f 729//616 514//616 513//616 
f 724//616 527//616 526//616 
f 531//616 530//616 724//616 
f 482//616 481//616 88//616 
f 92//616 486//616 485//616 
f 92//616 94//616 488//616 
f 94//616 491//616 490//616 
f 96//616 492//616 491//616 
f 98//616 497//616 496//616 
f 98//616 100//616 499//616 
f 100//616 102//616 502//616 
f 106//616 108//616 506//616 
f 723//616 511//616 510//616 
f 513//616 512//616 729//616 
f 514//616 729//616 730//616 
f 730//616 517//616 516//616 
f 724//616 528//616 527//616 
f 481//616 480//616 88//616 
f 92//616 487//616 486//616 
f 94//616 489//616 488//616 
f 491//616 94//616 96//616 
f 96//616 494//616 493//616 
f 498//616 497//616 98//616 
f 102//616 104//616 503//616 
f 729//616 512//616 511//616 
f 516//616 515//616 730//616 
f 517//616 730//616 731//616 
f 731//616 521//616 520//616 
f 529//616 528//616 724//616 
f 488//616 487//616 92//616 
f 493//616 492//616 96//616 
f 501//616 500//616 100//616 
f 730//616 515//616 514//616 
f 731//616 519//616 518//616 
f 731//616 522//616 521//616 
f 731//616 524//616 523//616 
f 484//616 483//616 87//616 
f 495//616 494//616 96//616 
f 731//616 518//616 517//616 
f 523//616 522//616 731//616 
f 490//616 489//616 94//616 
f 520//616 519//616 731//616 
f 88//616 724//616 732//616 
f 108//616 110//616 507//616 
f 524//616 731//616 724//616 
f 80//616 733//616 734//616 
f 82//616 735//616 733//616 
f 78//616 734//616 736//616 
f 733//616 80//616 82//616 
f 74//616 737//616 738//616 
f 76//616 736//616 737//616 
f 734//616 78//616 80//616 
f 738//616 71//616 70//616 
f 736//616 76//616 78//616 
f 739//616 84//616 89//616 
f 82//616 84//616 739//616 
f 737//616 74//616 76//616 
f 739//616 735//616 82//616 
f 89//616 88//616 739//616 
f 71//616 740//616 435//616 
f 38//616 454//616 453//616 
f 459//616 42//616 44//616 
f 460//616 44//616 46//616 
f 461//616 46//616 48//616 
f 428//616 427//616 66//616 
f 429//616 428//616 68//616 
f 71//616 434//616 433//616 
f 740//616 436//616 435//616 
f 38//616 455//616 454//616 
f 458//616 38//616 39//616 
f 459//616 39//616 42//616 
f 48//616 462//616 461//616 
f 462//616 48//616 50//616 
f 463//616 50//616 52//616 
f 464//616 52//616 54//616 
f 466//616 54//616 56//616 
f 66//616 427//616 426//616 
f 68//616 71//616 429//616 
f 71//616 432//616 431//616 
f 435//616 434//616 71//616 
f 740//616 438//616 437//616 
f 740//616 441//616 440//616 
f 453//616 452//616 38//616 
f 38//616 458//616 457//616 
f 44//616 460//616 459//616 
f 50//616 463//616 462//616 
f 54//616 465//616 464//616 
f 56//616 468//616 467//616 
f 66//616 68//616 428//616 
f 431//616 430//616 71//616 
f 437//616 436//616 740//616 
f 440//616 439//616 740//616 
f 38//616 456//616 455//616 
f 39//616 459//616 458//616 
f 52//616 464//616 463//616 
f 56//616 467//616 466//616 
f 62//616 476//616 475//616 
f 62//616 64//616 421//616 
f 64//616 66//616 425//616 
f 430//616 429//616 71//616 
f 439//616 438//616 740//616 
f 457//616 456//616 38//616 
f 466//616 465//616 54//616 
f 468//616 56//616 58//616 
f 58//616 471//616 470//616 
f 62//616 419//616 476//616 
f 421//616 420//616 62//616 
f 425//616 424//616 64//616 
f 433//616 432//616 71//616 
f 740//616 444//616 443//616 
f 46//616 461//616 460//616 
f 470//616 469//616 58//616 
f 60//616 472//616 471//616 
f 60//616 475//616 474//616 
f 420//616 419//616 62//616 
f 64//616 423//616 422//616 
f 426//616 425//616 66//616 
f 443//616 442//616 740//616 
f 740//616 447//616 446//616 
f 740//616 741//616 448//616 
f 38//616 451//616 450//616 
f 58//616 469//616 468//616 
f 60//616 473//616 472//616 
f 475//616 60//616 62//616 
f 424//616 423//616 64//616 
f 740//616 445//616 444//616 
f 448//616 447//616 740//616 
f 38//616 742//616 743//616 
f 450//616 449//616 38//616 
f 471//616 58//616 60//616 
f 422//616 421//616 64//616 
f 446//616 445//616 740//616 
f 743//616 744//616 38//616 
f 38//616 745//616 746//616 
f 38//616 448//616 741//616 
f 452//616 451//616 38//616 
f 442//616 441//616 740//616 
f 744//616 747//616 38//616 
f 741//616 745//616 38//616 
f 474//616 473//616 60//616 
f 71//616 738//616 748//616 
f 746//616 742//616 38//616 
f 748//616 740//616 71//616 
f 449//616 448//616 38//616 
f 747//616 720//616 38//616 
f 738//616 70//616 74//616 
f 732//616 739//616 88//616 
f 722//616 728//616 117//616 
o mesh8
f 749//617 710//617 713//618 
f 750//618 713//618 715//619 
f 751//619 715//619 714//620 
f 752//620 714//620 716//621 
f 753//621 716//621 717//622 
f 754//622 717//622 718//623 
f 755//623 718//623 719//624 
f 756//624 719//624 712//625 
f 712//625 757//625 756//624 
f 719//624 756//624 755//623 
f 718//623 755//623 754//622 
f 717//622 754//622 753//621 
f 716//621 753//621 752//620 
f 714//620 752//620 751//619 
f 715//619 751//619 750//618 
f 713//618 750//618 749//617 
o mesh9
f 758//626 709//626 721//627 
f 759//627 721//627 720//628 
f 720//628 760//629 759//627 
f 760//629 747//629 744//630 
f 761//630 744//630 743//631 
f 762//631 743//631 742//632 
f 763//632 742//632 746//633 
f 764//633 746//633 745//634 
f 765//634 745//634 741//635 
f 741//635 766//635 765//634 
f 745//634 765//634 764//633 
f 746//633 764//633 763//632 
f 742//632 763//632 762//631 
f 743//631 762//631 761//630 
f 744//630 761//630 760//629 
f 720//628 747//629 760//629 
f 721//627 759//627 758//626 
o mesh10
f 767//636 740//636 748//637 
f 768//637 748//637 738//638 
f 738//638 769//639 768//637 
f 769//639 737//639 736//640 
f 770//640 736//640 734//641 
f 771//641 734//641 733//642 
f 772//642 733//642 735//643 
f 773//644 774//643 739//645 
f 774//643 735//643 739//645 
f 773//644 732//644 724//646 
f 724//646 775//646 773//644 
f 739//645 732//644 773//644 
f 735//643 774//643 772//642 
f 733//642 772//642 771//641 
f 734//641 771//641 770//640 
f 736//640 770//640 769//639 
f 738//638 737//639 769//639 
f 748//637 768//637 767//636 
o mesh11
f 776//647 731//647 730//648 
f 777//648 730//648 729//649 
f 778//649 729//649 723//650 
f 779//650 723//650 725//651 
f 780//651 725//651 727//652 
f 781//652 727//652 726//653 
f 782//654 783//653 728//655 
f 783//653 726//653 728//655 
f 782//654 722//654 711//656 
f 711//656 784//656 782//654 
f 728//655 722//654 782//654 
f 726//653 783//653 781//652 
f 727//652 781//652 780//651 
f 725//651 780//651 779//650 
f 723//650 779//650 778//649 
f 729//649 778//649 777//648 
f 730//648 777//648 776//647 
o mesh12
f 776//657 775//657 724//657 
f 724//657 731//657 776//657 
o mesh13
f 740//658 767//658 766//658 
f 766//658 741//658 740//658 
o mesh14
f 712//659 709//659 758//659 
f 758//659 757//659 712//659 
o mesh15
f 711//660 710//660 749//660 
f 749//660 784//660 711//660 
o mesh16
f 758//661 785//661 786//661 
f 786//661 756//661 757//661 
f 786//661 757//661 758//661 
f 753//661 754//661 786//661 
f 758//661 759//661 785//661 
f 767//661 787//661 788//661 
f 776//661 789//661 790//661 
f 791//661 752//661 753//661 
f 752//661 791//661 792//661 
f 759//661 760//661 785//661 
f 786//661 754//661 755//661 
f 763//661 764//661 788//661 
f 788//661 765//661 766//661 
f 790//661 773//661 775//661 
f 784//661 749//661 792//661 
f 792//661 751//661 752//661 
f 755//661 756//661 786//661 
f 793//661 762//661 763//661 
f 762//661 793//661 785//661 
f 788//661 766//661 767//661 
f 790//661 775//661 776//661 
f 790//661 772//661 774//661 
f 780//661 794//661 789//661 
f 792//661 795//661 784//661 
f 760//661 761//661 785//661 
f 785//661 761//661 762//661 
f 788//661 764//661 765//661 
f 770//661 796//661 787//661 
f 789//661 777//661 778//661 
f 774//661 773//661 790//661 
f 781//661 783//661 795//661 
f 789//661 779//661 780//661 
f 795//661 782//661 784//661 
f 788//661 793//661 763//661 
f 767//661 768//661 787//661 
f 771//661 772//661 790//661 
f 787//661 769//661 770//661 
f 776//661 777//661 789//661 
f 780//661 781//661 794//661 
f 749//661 750//661 792//661 
f 768//661 769//661 787//661 
f 770//661 771//661 796//661 
f 795//661 794//661 781//661 
f 795//661 783//661 782//661 
f 790//661 796//661 771//661 
f 750//661 751//661 792//661 
f 778//661 779//661 789//661 
f 786//661 791//661 753//661 
o mesh17
f 797//662 699//662 700//662 
f 797//662 697//662 698//662 
f 698//662 699//662 797//662 
f 797//662 695//662 696//662 
f 798//662 690//662 691//662 
f 798//662 688//662 689//662 
f 799//662 800//662 652//662 
f 801//662 668//662 669//662 
f 801//662 802//662 665//662 
f 686//662 803//662 804//662 
f 696//662 697//662 797//662 
f 797//662 798//662 694//662 
f 798//662 692//662 693//662 
f 689//662 690//662 798//662 
f 652//662 651//662 799//662 
f 801//662 667//662 668//662 
f 665//662 666//662 801//662 
f 804//662 681//662 682//662 
f 805//662 679//662 680//662 
f 687//662 688//662 798//662 
f 804//662 685//662 686//662 
f 694//662 695//662 797//662 
f 691//662 692//662 798//662 
f 703//662 704//662 800//662 
f 651//662 653//662 799//662 
f 800//662 707//662 708//662 
f 666//662 667//662 801//662 
f 802//662 663//662 664//662 
f 802//662 661//662 662//662 
f 804//662 680//662 681//662 
f 805//662 678//662 679//662 
f 686//662 687//662 803//662 
f 693//662 694//662 798//662 
f 806//662 702//662 703//662 
f 702//662 806//662 797//662 
f 799//662 654//662 655//662 
f 708//662 652//662 800//662 
f 800//662 704//662 705//662 
f 801//662 670//662 671//662 
f 664//662 665//662 802//662 
f 802//662 660//662 661//662 
f 673//662 807//662 801//662 
f 680//662 804//662 805//662 
f 805//662 676//662 677//662 
f 700//662 701//662 797//662 
f 797//662 701//662 702//662 
f 653//662 654//662 799//662 
f 705//662 706//662 800//662 
f 657//662 808//662 799//662 
f 669//662 670//662 801//662 
f 802//662 659//662 660//662 
f 674//662 675//662 805//662 
f 801//662 672//662 673//662 
f 804//662 683//662 684//662 
f 677//662 678//662 805//662 
f 800//662 806//662 703//662 
f 706//662 707//662 800//662 
f 658//662 659//662 802//662 
f 799//662 656//662 657//662 
f 662//662 663//662 802//662 
f 673//662 674//662 807//662 
f 682//662 683//662 804//662 
f 655//662 656//662 799//662 
f 657//662 658//662 808//662 
f 805//662 807//662 674//662 
f 805//662 675//662 676//662 
f 802//662 808//662 658//662 
f 684//662 685//662 804//662 
f 671//662 672//662 801//662 
f 798//662 803//662 687//662 
o mesh18
f 802//663 801//663 790//663 
f 790//663 789//663 802//663 
o mesh19
f 808//664 802//664 789//664 
f 789//664 794//664 808//664 
o mesh20
f 799//663 808//663 794//663 
f 794//663 795//663 799//663 
o mesh21
f 800//664 799//664 795//664 
f 795//664 792//664 800//664 
o mesh22
f 806//665 800//665 792//665 
f 792//665 791//665 806//665 
o mesh23
f 797//664 806//664 791//664 
f 791//664 786//664 797//664 
o mesh24
f 798//665 797//665 786//665 
f 786//665 785//665 798//665 
o mesh25
f 803//666 798//666 785//666 
f 785//666 793//666 803//666 
o mesh26
f 804//665 803//665 793//665 
f 793//665 788//665 804//665 
o mesh27
f 805//666 804//666 788//666 
f 788//666 787//666 805//666 
o mesh28
f 807//667 805//667 787//667 
f 787//667 796//667 807//667 
o mesh29
f 801//666 807//666 796//666 
f 796//666 790//666 801//666 
